<svg width="335" height="110" viewBox="0 0 335 110" fill="none" xmlns="http://www.w3.org/2000/svg">
<g clip-path="url(#clip0_3_1107)">
<g clip-path="url(#clip1_3_1107)">
<path d="M85.0253 100.797C95.4208 92.3511 102.056 79.5207 102.056 65.1524C102.056 39.716 81.2658 19.0955 55.6193 19.0955C29.9728 19.0955 9.18262 39.716 9.18262 65.1524C9.18262 79.5207 15.8174 92.3511 26.2133 100.797C35.0089 100.652 45.0106 100.57 55.6193 100.57C66.228 100.57 76.2297 100.652 85.0253 100.797Z" fill="#FBC75F"/>
<path d="M12.8423 98.3229C14.6025 96.5806 17.4436 97.1879 17.4436 97.1879C16.8751 96.2127 16.7164 95.2646 16.7194 94.501C16.7244 93.2776 17.5605 92.2611 18.5901 92.2325C21.1164 92.1617 24.2947 95.0188 24.2947 95.0188C22.9744 91.3599 25.1649 89.1896 25.1649 89.1896C29.5656 84.0636 40.8797 92.417 40.8797 92.417C39.8795 91.3611 39.3398 90.2022 39.0548 89.1701C38.5034 87.1709 39.9823 85.1517 41.7198 85.5601C43.5061 85.9801 45.3383 87.392 46.3994 88.3258C46.3335 86.2358 46.4189 84.2584 46.7614 82.7997C47.5416 79.0509 51.1578 80.5216 51.1578 80.5216C51.1578 80.5216 56.5011 82.5571 57.6077 85.1366C58.0818 84.0318 58.6092 83.0264 59.0568 82.2385C59.8648 80.8167 61.331 80.0797 62.7337 80.489C63.2707 80.6457 63.9099 81.5389 63.9099 81.5389C63.9099 81.5389 64.3888 82.2958 64.5073 82.8001C64.8502 84.2588 64.9355 86.2366 64.8692 88.3262C65.9307 87.3924 67.7629 85.9809 69.5489 85.5605C71.2863 85.1517 72.7653 87.1712 72.2138 89.1705C71.9292 90.2026 71.3895 91.3611 70.389 92.4174C70.389 92.4174 81.7031 84.0644 86.1038 89.19C86.1038 89.19 88.2943 91.3599 86.974 95.0192C86.974 95.0192 90.1523 92.1621 92.6786 92.2329C93.7112 92.2619 94.5463 93.2844 94.5493 94.5113C94.5513 95.2733 94.3913 96.2175 93.8251 97.1887C93.8251 97.1887 96.6661 96.5814 98.4264 98.3237C100.187 100.066 97.5461 101.286 90.3582 101.112L60.2733 101.124C60.2589 101.125 60.2448 101.128 60.2304 101.128L55.6338 101.126L51.0372 101.128C51.0228 101.128 51.0088 101.125 50.9944 101.124L20.9095 101.112C13.7226 101.285 11.0821 100.065 12.8423 98.3229Z" fill="#FFA42C"/>
<path d="M91.9608 101.522C91.5333 101.522 91.0845 101.517 90.6262 101.506L60.328 101.519C60.3128 101.52 60.2976 101.522 60.2821 101.522C60.2771 101.522 60.2717 101.522 60.2666 101.522L55.6339 101.52L51.0016 101.522C50.9966 101.522 50.9912 101.522 50.9861 101.522C50.9706 101.522 50.9554 101.52 50.9405 101.519L20.6424 101.506C20.1841 101.517 19.7353 101.522 19.3077 101.522C17.0511 101.522 15.2538 101.373 13.9654 101.079C12.5565 100.757 11.7985 100.28 11.5806 99.5787C11.4557 99.1779 11.4648 98.5474 12.2157 97.8191C13.3617 96.7081 14.889 96.4749 15.9685 96.4749C16.0941 96.4749 16.2129 96.478 16.3239 96.4831C16.0786 95.8357 15.9564 95.1549 15.9594 94.4495C15.9658 92.96 17.0106 91.7194 18.2886 91.684C18.3233 91.6832 18.3584 91.6825 18.3932 91.6825C20.1267 91.6825 22.0702 92.8536 23.2459 93.6976C23.0393 92.3448 23.2837 91.2561 23.5742 90.5125C23.9647 89.513 24.5137 88.9249 24.6176 88.8193C25.6604 87.6368 27.1223 87.0377 28.9638 87.0377C31.1529 87.0377 33.8468 87.8657 36.9707 89.4981C37.7124 89.886 38.3864 90.2715 38.9617 90.6185C38.7727 90.2153 38.6162 89.7933 38.4923 89.354C38.2092 88.3482 38.3556 87.2748 38.8946 86.4099C39.4271 85.5552 40.2717 85.0453 41.1545 85.0453C41.3351 85.0453 41.518 85.0665 41.6982 85.1077C43.1871 85.4508 44.6854 86.4064 45.8516 87.3192C45.8405 85.454 45.9748 83.926 46.2519 82.7671C46.6548 80.8814 47.8302 79.843 49.5617 79.843C50.4549 79.843 51.1916 80.1218 51.2648 80.15C51.3587 80.1854 52.6768 80.6839 54.1495 81.4974C55.7564 82.3851 56.9031 83.2892 57.5726 84.1945C57.9094 83.4894 58.2894 82.7714 58.7072 82.051C59.4594 80.7542 60.6908 79.98 62.0008 79.98C62.3028 79.98 62.6045 80.0224 62.8974 80.1061C63.5484 80.2921 64.1973 81.1445 64.3208 81.3137C64.3266 81.3219 64.3323 81.3302 64.338 81.3384C64.3927 81.4232 64.876 82.1817 65.0143 82.7584C65.2927 83.9185 65.4274 85.4489 65.4162 87.3184C66.5825 86.4056 68.0808 85.45 69.5697 85.1073C69.7499 85.0657 69.9328 85.0449 70.1133 85.0449C70.9961 85.0449 71.8408 85.5552 72.3733 86.4095C72.9122 87.2748 73.0587 88.3478 72.7756 89.3536C72.6517 89.7929 72.4951 90.2146 72.3062 90.6181C72.8815 90.2715 73.5558 89.8856 74.2975 89.4977C77.4214 87.8649 80.1153 87.0373 82.3044 87.0373C84.1459 87.0373 85.6078 87.6368 86.6506 88.8189C86.7545 88.9245 87.3039 89.5126 87.694 90.5121C87.9846 91.2557 88.2289 92.3448 88.0223 93.6973C89.1981 92.8532 91.1418 91.6821 92.875 91.6821C92.9101 91.6821 92.9449 91.6825 92.98 91.6836C94.2606 91.719 95.3054 92.9643 95.3091 94.4597C95.3108 95.1616 95.1886 95.8388 94.9447 96.4827C95.0557 96.4776 95.1748 96.4745 95.3 96.4745C96.3795 96.4745 97.9069 96.7077 99.0529 97.8187C99.8037 98.5466 99.8129 99.1771 99.688 99.5779C99.4697 100.279 98.7117 100.756 97.3028 101.078C96.0147 101.373 94.2171 101.522 91.9608 101.522ZM90.6306 100.449C90.6336 100.449 90.637 100.449 90.64 100.449C91.0939 100.46 91.5383 100.465 91.9608 100.465C98.3722 100.465 98.818 99.2697 98.8339 99.2187C98.8619 99.1284 98.7607 98.9121 98.4715 98.6314C97.5343 97.7229 96.2297 97.5321 95.3003 97.5321C94.6625 97.5321 94.2097 97.624 94.2049 97.6252C94.0244 97.6624 93.8418 97.5698 93.743 97.39C93.6441 97.2106 93.6471 96.9793 93.7514 96.8038C94.184 96.0768 94.4027 95.2892 94.4007 94.4636C94.3983 93.5359 93.7514 92.7633 92.9587 92.7413C90.6009 92.6757 87.5246 95.3579 87.4942 95.385C87.3299 95.5295 87.1024 95.5271 86.9401 95.3795C86.7778 95.2319 86.7214 94.9755 86.8024 94.7553C87.9859 91.5423 86.0715 89.6343 86.0519 89.6155C86.0425 89.6064 86.0337 89.597 86.0249 89.5868C85.1573 88.5971 83.9057 88.0953 82.3044 88.0953C80.2763 88.0953 77.6404 88.9119 74.6812 90.4572C72.4232 91.6361 70.7613 92.832 70.7447 92.8441C70.5443 92.989 70.2821 92.9313 70.141 92.7114C69.9999 92.4916 70.0269 92.1826 70.2031 92.0001C71.0187 91.1564 71.5938 90.1557 71.9123 89.0258C72.1037 88.3458 72.0038 87.6187 71.638 87.031C71.2759 86.45 70.7063 86.1029 70.1137 86.1029C69.9922 86.1029 69.8687 86.117 69.7465 86.1453C67.9944 86.5489 66.1536 87.9701 65.2124 88.7816C65.072 88.9025 64.8844 88.9194 64.7298 88.8244C64.5753 88.7294 64.4811 88.5401 64.4879 88.3372C64.5604 86.0911 64.443 84.3099 64.1393 83.0438C64.0708 82.7576 63.7883 82.2508 63.6203 81.9878C63.3888 81.6756 62.9508 81.2108 62.6811 81.1339C62.4591 81.0703 62.2303 81.0381 62.0011 81.0381C61.0083 81.0381 60.0348 81.6533 59.4604 82.6434C58.9093 83.5931 58.4274 84.5369 58.0282 85.4489C57.9506 85.6259 57.7944 85.7374 57.6233 85.7374C57.4522 85.7374 57.2959 85.6259 57.2183 85.4489C56.3747 83.5228 52.4318 81.6972 50.9837 81.1562C50.981 81.1551 50.978 81.1543 50.9753 81.1531C50.9696 81.1507 50.326 80.9011 49.5617 80.9011C48.2496 80.9011 47.4326 81.6168 47.1326 83.0289C47.1316 83.034 47.1303 83.0391 47.1293 83.0442C46.8256 84.3103 46.7081 86.0911 46.7807 88.3376C46.7871 88.5405 46.6933 88.7302 46.5387 88.8248C46.3842 88.9198 46.1965 88.9029 46.0561 88.782C45.1146 87.9705 43.2738 86.5493 41.522 86.1457C41.3999 86.1174 41.2764 86.1033 41.1549 86.1033C40.5626 86.1033 39.9927 86.4504 39.6309 87.0314C39.2648 87.6191 39.1649 88.3458 39.3562 89.0262C39.6744 90.1561 40.2495 91.1568 41.0655 92.0005C41.2419 92.1826 41.2689 92.4916 41.1275 92.7118C40.9865 92.9317 40.7243 92.9894 40.5238 92.8445C40.5073 92.8328 38.845 91.6365 36.5874 90.4576C33.6285 88.9123 30.9923 88.0957 28.9641 88.0957C27.3629 88.0957 26.1112 88.5975 25.2436 89.5872C25.2349 89.597 25.2257 89.6068 25.2166 89.6158C25.2133 89.6194 24.7202 90.1125 24.3861 90.9923C23.9461 92.1504 23.9731 93.4169 24.4665 94.7561C24.5478 94.9763 24.4911 95.2327 24.3288 95.3807C24.1665 95.5283 23.939 95.5307 23.7747 95.3858C23.7446 95.3595 20.7396 92.7413 18.3935 92.7413C18.3655 92.7413 18.3379 92.7417 18.3102 92.7425C17.5192 92.7641 16.8723 93.5332 16.8682 94.4561C16.8645 95.2849 17.0828 96.0752 17.5171 96.805C17.6218 96.9805 17.6251 97.2121 17.5256 97.392C17.4264 97.5718 17.2435 97.664 17.0629 97.6263C17.0589 97.6255 16.606 97.5337 15.9682 97.5337C15.0388 97.5337 13.7339 97.7245 12.7971 98.6329C12.5076 98.9136 12.4063 99.1304 12.4347 99.2203C12.4505 99.2713 12.8963 100.467 19.3077 100.467C19.7306 100.467 20.175 100.461 20.6285 100.451C20.6316 100.451 20.6349 100.451 20.638 100.451L50.9588 100.463C50.9659 100.463 50.9729 100.463 50.98 100.464C50.9928 100.465 51.0053 100.466 51.0182 100.467L55.6343 100.465L60.2507 100.467C60.2632 100.466 60.276 100.465 60.2889 100.464C60.2959 100.464 60.303 100.463 60.3101 100.463L90.6306 100.449Z" fill="#232323"/>
<g opacity="0.5">
<path opacity="0.5" d="M50.8425 81.4847C50.8234 81.4784 48.9215 80.8538 47.5702 81.5881C46.9361 81.9325 46.5244 82.5152 46.3076 83.3848C45.9496 84.6572 45.8112 86.4468 45.8967 88.7044C45.9043 88.9083 45.7937 89.0989 45.6115 89.194C45.4293 89.2891 45.2081 89.2725 45.0427 89.151C44.936 89.0725 44.8167 88.9873 44.6914 88.8989C44.7622 88.893 44.8322 88.874 44.8975 88.8401C45.0796 88.745 45.1906 88.5544 45.1827 88.3505C45.0972 86.0929 45.2356 84.3033 45.5936 83.0309C45.8104 82.1613 46.2221 81.5786 46.8562 81.2342C48.2075 80.4999 50.1093 81.1245 50.1284 81.1308C51.002 81.4089 52.6353 82.0217 54.1596 82.8107C52.8609 82.1937 51.5804 81.7198 50.8425 81.4847Z" fill="white"/>
</g>
<g opacity="0.5">
<path opacity="0.5" d="M39.6984 86.5016C38.9267 86.3493 38.1466 86.6165 37.6128 87.2138C37.0694 87.8218 36.8948 88.6381 37.1454 89.396C37.5205 90.5319 38.1987 91.5375 39.1602 92.3854C39.3679 92.5689 39.4001 92.8794 39.2338 93.1003C39.0675 93.3213 38.758 93.3793 38.5217 93.2337C38.5074 93.225 38.3411 93.1236 38.0504 92.9559C38.2278 92.9689 38.4068 92.8963 38.5198 92.746C38.686 92.5251 38.6542 92.2146 38.4462 92.0311C37.4847 91.1832 36.8065 90.1776 36.4313 89.0417C36.1811 88.2838 36.3558 87.4675 36.8988 86.8595C37.4326 86.2618 38.2123 85.9951 38.9844 86.1473C39.9622 86.3395 40.9622 86.7613 41.8632 87.2383C41.1619 86.9143 40.4244 86.6441 39.6984 86.5016Z" fill="white"/>
</g>
<g opacity="0.5">
<path opacity="0.5" d="M60.8437 82.9824C60.1941 83.9368 59.6261 84.8853 59.1555 85.8018C59.064 85.9797 58.8798 86.0918 58.6781 86.0918C58.4765 86.0918 58.2923 85.9797 58.2008 85.8018C58.1841 85.7694 58.1638 85.7371 58.1455 85.7047C58.2712 85.6597 58.3786 85.5698 58.4411 85.4475C58.9121 84.531 59.4801 83.5825 60.1293 82.6281C60.9818 81.375 62.5077 80.7647 63.9255 81.1111C64.0774 81.1482 64.2747 81.2752 64.4688 81.4307C63.1012 81.1715 61.6624 81.7794 60.8437 82.9824Z" fill="white"/>
</g>
<g opacity="0.5">
<path opacity="0.5" d="M72.9691 86.5012C70.9034 86.9072 68.7339 88.3354 67.6244 89.1505C67.4589 89.2725 67.2378 89.289 67.0556 89.1936C66.9219 89.1237 66.8273 89.0026 66.7891 88.8625C66.8316 88.846 66.8726 88.8243 66.9104 88.7962C68.0198 87.9811 70.1894 86.5525 72.2551 86.1469C72.8741 86.0254 73.4954 86.1761 73.9931 86.547C73.6657 86.4539 73.3172 86.433 72.9691 86.5012Z" fill="white"/>
</g>
<g opacity="0.5">
<path opacity="0.5" d="M74.1458 93.2334C73.9092 93.3794 73.6001 93.321 73.4342 93.1C73.3928 93.0448 73.3638 92.9844 73.3467 92.9217C73.3757 92.9103 73.4048 92.8964 73.4322 92.8795C73.5559 92.8033 85.1734 85.7272 90.5631 88.9349C84.9272 86.6651 74.2644 93.1608 74.1458 93.2334Z" fill="white"/>
</g>
<g opacity="0.3">
<path opacity="0.3" d="M92.6108 91.5454C92.6108 91.5454 91.5595 94.9763 92.6108 95.3602C92.6108 95.3602 94.0751 91.9853 92.6108 91.5454Z" fill="#232323"/>
</g>
<g opacity="0.2">
<path opacity="0.2" d="M28.8149 92.8421C28.92 92.1126 27.827 91.3542 26.3737 91.1481C24.9203 90.9421 23.6568 91.3664 23.5517 92.0959C23.4466 92.8254 24.5395 93.5838 25.9929 93.7898C27.4463 93.9959 28.7098 93.5716 28.8149 92.8421Z" fill="white"/>
</g>
<g opacity="0.2">
<path opacity="0.2" d="M53.818 86.7019C54.0963 85.9627 53.1141 84.9163 51.6243 84.3645C50.1344 83.8127 48.7011 83.9646 48.4228 84.7038C48.1445 85.4429 49.1267 86.4894 50.6166 87.0412C52.1064 87.5929 53.5398 87.441 53.818 86.7019Z" fill="white"/>
</g>
<g opacity="0.2">
<path opacity="0.2" d="M15.547 97.0972C15.599 96.7361 15.138 96.3721 14.5174 96.2841C13.8967 96.1961 13.3513 96.4175 13.2993 96.7785C13.2473 97.1396 13.7082 97.5036 14.3289 97.5916C14.9496 97.6796 15.4949 97.4583 15.547 97.0972Z" fill="white"/>
</g>
<g opacity="0.2">
<path opacity="0.2" d="M87.6533 93.4487C88.7587 93.1972 89.5246 92.4305 89.364 91.7362C89.2034 91.042 88.1771 90.683 87.0718 90.9345C85.9664 91.186 85.2005 91.9527 85.3611 92.647C85.5217 93.3413 86.5479 93.7002 87.6533 93.4487Z" fill="white"/>
</g>
<g opacity="0.2">
<path opacity="0.2" d="M98.2632 96.563C98.8532 96.4287 99.262 96.0196 99.1763 95.6492C99.0906 95.2788 98.5429 95.0874 97.953 95.2216C97.363 95.3558 96.9542 95.7649 97.0399 96.1353C97.1256 96.5057 97.6733 96.6972 98.2632 96.563Z" fill="white"/>
</g>
<g opacity="0.2">
<path opacity="0.2" d="M70.0444 91.5069C70.6956 91.134 71.0447 90.5245 70.8242 90.1456C70.6036 89.7667 69.8968 89.7619 69.2456 90.1348C68.5943 90.5077 68.2452 91.1172 68.4658 91.4961C68.6864 91.875 69.3931 91.8799 70.0444 91.5069Z" fill="white"/>
</g>
<g opacity="0.2">
<path opacity="0.2" d="M50.9836 92.8843C51.096 92.4387 50.4906 91.9047 49.6315 91.6915C48.7724 91.4784 47.9849 91.6668 47.8725 92.1124C47.7601 92.558 48.3654 93.092 49.2245 93.3052C50.0836 93.5184 50.8712 93.3299 50.9836 92.8843Z" fill="white"/>
</g>
<g opacity="0.2">
<path opacity="0.2" d="M71.4042 86.1497C71.5134 86.634 72.3619 88.7997 72.2142 89.3276C71.9296 90.3461 71.3898 91.4894 70.3894 92.5318C70.3894 92.5318 81.7033 84.2886 86.104 89.3468C86.104 89.3468 88.2944 91.4882 86.9742 95.0994C86.9742 95.0994 90.1524 92.2798 92.6787 92.3497C93.7113 92.3783 94.5464 93.3874 94.5494 94.5982C94.551 95.3502 94.391 96.2819 93.8251 97.2404C93.8251 97.2404 96.6662 96.641 98.4264 98.3605C100.187 100.08 97.5461 101.284 90.3583 101.112L60.2738 101.124C60.2594 101.125 60.2454 101.127 60.231 101.128L55.6344 101.126L51.0379 101.128C51.0235 101.127 51.0094 101.125 50.995 101.124L20.9105 101.112C13.7224 101.284 11.0819 100.08 12.8425 98.3605C13.0999 98.1089 13.3812 97.908 13.6728 97.7466C56.0245 102.77 70.0519 90.2009 71.4042 86.1497Z" fill="#232323"/>
</g>
<path d="M29.212 101.09L27.7183 100.147L26.875 97.9347C26.875 97.9347 26.875 93.5258 35.2847 92.8108C35.2847 92.8108 47.2726 92.7134 48.427 96.039L49.1009 99.4837C49.1009 99.4837 49.3411 101.628 45.0159 101.033L29.212 101.09Z" fill="#FF5933"/>
<path d="M49.0172 99.0551C41.6068 99.6572 29.9626 99.1095 27.2695 98.9691L27.7186 100.147L29.2124 101.09L45.0162 101.033C49.3414 101.629 49.1012 99.4839 49.1012 99.4839L49.0172 99.0551Z" fill="#FFECB3"/>
<g opacity="0.5">
<path opacity="0.5" d="M28.6626 100.532C28.6626 100.532 27.0806 97.1321 31.1675 94.9397C32.374 94.2926 33.7261 93.9628 35.0973 93.9245C37.8591 93.848 43.8992 93.8369 46.8719 95.043L47.2291 94.6887C47.2291 94.6887 39.5561 92.1629 34.065 93.0273C34.065 93.0273 26.9668 94.0689 27.5026 99.2038C27.5022 99.2038 27.1454 100.089 28.6626 100.532Z" fill="white"/>
</g>
<path d="M35.2108 77.1167C35.1102 77.9307 35.0095 78.7478 35.0159 79.568C35.0286 81.2448 35.4885 82.8865 36.0339 84.4741C36.3752 85.4672 36.7523 86.4511 37.2447 87.3799C38.6796 90.0872 41.1061 92.2631 43.9658 93.4073C43.0987 92.0074 42.2311 90.608 41.3639 89.2082C40.5154 87.8391 39.6585 86.4515 39.1824 84.9156C38.6191 83.0983 38.6155 81.1635 38.6167 79.2626C38.6179 77.4833 38.6191 75.7043 38.6203 73.9249C38.6203 73.7927 38.6187 73.6539 38.5535 73.5387C38.491 73.4286 38.3796 73.356 38.2695 73.2929C37.5494 72.8774 36.341 72.4592 35.5334 72.7575C36.0808 73.7497 35.3473 76.0128 35.2108 77.1167Z" fill="#FF5933"/>
<g opacity="0.5">
<path opacity="0.5" d="M36.5171 73.2641C36.5171 73.4412 34.1964 86.721 42.801 92.4292C42.801 92.4292 32.0813 86.9428 35.8166 73.1094L36.5171 73.2641Z" fill="white"/>
</g>
<path d="M60.4668 74.3976C60.2385 76.9522 60.1633 79.5179 60.0881 82.0812C60.0627 82.9445 60.0376 83.8081 60.0121 84.6714C59.9918 85.3677 59.9716 86.0653 60.0229 86.76C60.0674 87.3609 60.1653 87.9567 60.2787 88.5485C60.6502 90.4857 61.1896 92.3913 61.8893 94.237C61.1566 95.1712 60.4521 96.2696 59.9461 97.3416C59.6597 97.948 59.4071 98.6152 59.5316 99.2733C59.7572 100.469 61.1156 101.113 62.338 101.214C62.8345 101.255 63.3333 101.239 63.8309 101.223C69.0548 101.054 74.2786 100.886 79.5024 100.717C80.177 100.695 80.7192 99.7779 80.7658 99.1099C80.8123 98.442 80.5454 97.7961 80.2837 97.1786C79.6603 95.7078 78.6316 94.5869 77.093 94.1214C77.6519 91.7226 78.307 88.7781 78.5982 86.3328C78.9168 83.6574 77.7326 81.1663 77.6682 78.4731C77.6606 78.1563 77.6741 77.8348 77.5966 77.5274C77.5083 77.1767 77.307 76.8662 77.1089 76.5628C76.1784 75.1365 75.248 73.7107 74.3176 72.2844C74.1899 72.0887 74.0534 71.8851 73.8462 71.7754C73.6389 71.6658 73.3394 71.6902 73.2181 71.8899C69.2827 73.5611 64.7475 74.4824 60.4668 74.3976Z" fill="#FF5933"/>
<g opacity="0.1">
<path opacity="0.1" d="M66.865 86.721H64.5463C64.1513 86.721 63.8311 86.4034 63.8311 86.0116V79.9933C63.8311 79.6015 64.1513 79.2839 64.5463 79.2839H66.865C67.26 79.2839 67.5802 79.6015 67.5802 79.9933V86.0116C67.5802 86.4034 67.26 86.721 66.865 86.721Z" fill="white"/>
</g>
<g opacity="0.5">
<path opacity="0.5" d="M61.8306 74.6536C61.8306 74.6536 59.2147 84.8079 63.2189 94.175L61.7486 93.932C61.7486 93.932 56.5308 81.1947 60.8504 74.0867L61.8306 74.6536Z" fill="white"/>
</g>
<g opacity="0.2">
<g opacity="0.2">
<path opacity="0.2" d="M77.094 94.1217C77.6529 91.7229 78.308 88.7785 78.5992 86.3331C78.9178 83.6578 77.7336 81.1666 77.6692 78.4735C77.6616 78.1567 77.6751 77.8351 77.5976 77.5278C77.5093 77.1771 77.308 76.8666 77.1099 76.5632C76.1794 75.1369 75.249 73.711 74.3186 72.2848C74.1909 72.0891 74.0544 71.8855 73.8472 71.7758C73.6399 71.6661 73.3404 71.6906 73.2191 71.8902C69.409 73.5078 65.0381 74.42 60.8795 74.3999L60.8008 75.6466C60.8008 75.6466 63.7484 76.1899 66.6487 76.0921C70.1008 75.9753 72.8805 78.8759 72.6618 82.295C72.3757 86.7612 70.0562 91.8188 61.5653 93.3402C61.6696 93.6404 61.7766 93.9399 61.8895 94.2373C61.837 94.304 61.7853 94.3735 61.7336 94.4417L63.2735 101.238C63.4596 101.234 63.6458 101.23 63.8316 101.223C68.8955 101.06 73.9598 100.896 79.0237 100.733C79.9223 100.703 80.727 99.953 80.7692 99.0622C80.7998 98.4112 80.5396 97.7815 80.2843 97.179C79.6613 95.7078 78.6326 94.5869 77.094 94.1217Z" fill="#232323"/>
</g>
</g>
<path d="M60.7612 100.72L59.5312 99.2737C59.5312 99.2737 60.0818 94.6892 62.7597 93.8038C62.7597 93.8038 72.8565 91.1939 78.2072 94.6679L79.9981 96.7072L80.9269 98.1548L80.728 99.6024L79.4014 101.181L60.7612 100.72Z" fill="#F7734F"/>
<g opacity="0.5">
<path opacity="0.5" d="M60.9753 100.355C60.9753 100.355 60.4399 96.8133 63.296 95.0426C63.296 95.0426 68.8353 92.454 77.5779 94.5116L75.5249 93.3607L73.2042 93.0064C73.2042 93.0064 69.2474 93.0498 68.8158 93.1165C68.3842 93.1832 64.6939 93.5576 64.6939 93.5576C64.6939 93.5576 62.4833 94.1687 62.3095 94.1186C62.1357 94.0689 61.8906 94.3553 61.2991 94.9203C60.7076 95.4853 59.6363 97.9642 59.6363 97.9642C59.6363 97.9642 59.2493 98.9888 59.5321 99.2733C59.8149 99.5578 60.7621 100.72 60.7621 100.72L60.9753 100.355Z" fill="white"/>
</g>
<path d="M59.4897 99.0287C66.9001 99.6308 78.5443 99.0831 81.2374 98.9427L80.7883 100.12L79.2945 101.063L63.4906 101.006C59.1655 101.602 59.4057 99.4576 59.4057 99.4576L59.4897 99.0287Z" fill="#FFECB3"/>
<path d="M69.8859 56.2296L64.7198 65.6429C64.7198 65.6429 58.7891 72.7182 59.9522 78.8919C59.9522 78.8919 59.0731 89.2363 60.9952 92.4534C60.9952 92.4534 52.5203 97.0849 43.0918 92.9521C43.0918 92.9521 31.3804 78.4524 43.6348 56.4083C43.6348 56.4083 59.373 59.2679 70.0056 55.1572L69.8859 56.2296Z" fill="#FF5933"/>
<path d="M60.0525 77.0059C60.0525 77.0059 58.6873 87.1357 61.2145 92.55C61.2145 92.55 51.5242 97.228 43.1726 92.55C43.1726 92.55 33.8527 81.4591 40.6745 63.5064C40.6745 63.5064 41.3789 56.9929 43.634 56.4082L61.0756 56.6931C61.0756 56.6931 64.7238 61.5778 60.0525 77.0059Z" fill="#FFECB3"/>
<g opacity="0.2">
<g opacity="0.2">
<path opacity="0.2" d="M41.9624 89.8197C41.9624 89.8197 41.6644 89.9239 41.5471 90.0473C42.4461 91.6847 43.1729 92.5503 43.1729 92.5503C51.5245 97.2283 61.2147 92.5503 61.2147 92.5503C58.6872 87.136 60.0528 77.0063 60.0528 77.0063C61.4017 72.5511 62.0561 68.9766 62.3059 66.1434C62.3059 66.143 62.3055 66.143 62.3055 66.1426C59.2902 64.6809 53.2096 62.3752 53.2096 62.3752L44.8189 65.5623C44.8189 65.5623 40.3557 68.5722 40.5343 68.7493C40.7129 68.9265 38.749 72.8218 38.749 72.8218L38.8381 74.858L42.7655 75.389L43.301 76.4515H44.729C44.729 76.4515 50.6203 80.1697 55.5299 74.7696C55.5299 74.7696 55.5299 74.7696 55.5303 74.77C56.9242 75.322 57.7225 76.7897 57.4063 78.2447C56.3326 83.1843 52.8237 92.7456 41.9624 89.8197Z" fill="#232323"/>
</g>
</g>
<path d="M46.5812 63.1991C46.5812 63.1991 40.5427 67.4972 43.5357 74.1207L43.4427 75.4862L44.8827 75.3521C44.8827 75.3521 51.7474 79.0548 55.7516 71.7937L46.5812 63.1991Z" fill="#FFECB3"/>
<path d="M48.8817 76.8269H48.8813C46.8832 76.8269 45.2706 76.1317 44.7793 75.895L43.4932 76.0149C43.3369 76.0295 43.1818 75.9754 43.0696 75.8666C42.957 75.7581 42.8981 75.6058 42.9089 75.4503L42.9928 74.2154C42.3114 72.6582 42.05 71.0934 42.2167 69.563C42.3535 68.3064 42.7768 67.0758 43.4753 65.9056C44.6544 63.9298 46.2038 62.814 46.269 62.7675C46.4775 62.6191 46.7627 62.6381 46.9492 62.8128L56.1196 71.4071C56.2966 71.5728 56.3383 71.8363 56.2218 72.0482C55.2683 73.7771 54.0717 75.0577 52.6655 75.8539C51.5251 76.4998 50.2521 76.8269 48.8817 76.8269ZM44.8827 74.8206C44.9718 74.8206 45.0597 74.8427 45.1385 74.8853C45.154 74.8936 46.806 75.7648 48.8809 75.7648C51.465 75.7648 53.5482 74.4628 55.0781 71.8935L46.553 63.9037C46.0602 64.3239 45.1254 65.2152 44.3779 66.4785C42.9829 68.8371 42.8639 71.3353 44.0243 73.9033C44.0601 73.9826 44.0756 74.0694 44.07 74.1562L44.0195 74.8987L44.8326 74.823C44.8493 74.8214 44.866 74.8206 44.8827 74.8206Z" fill="#232323"/>
<path d="M57.0725 59.8978C56.796 60.7094 56.1615 62.0796 54.8066 63.2065L55.8803 64.2106C55.8803 64.2106 58.8112 62.5791 59.2949 60.7319C59.3705 60.4431 59.2202 60.1421 58.9497 60.0115L57.9604 59.5337C57.6135 59.366 57.1962 59.5353 57.0725 59.8978Z" fill="#9E6C4B"/>
<path d="M55.8808 64.7416C55.7471 64.7416 55.615 64.6923 55.5132 64.5968L54.4396 63.5927C54.3282 63.4886 54.2673 63.3426 54.2717 63.1907C54.2761 63.0388 54.3457 62.8968 54.463 62.7993C55.7451 61.7333 56.3307 60.4175 56.5654 59.7278C56.7265 59.2552 57.1736 58.9376 57.6784 58.9376C57.8586 58.9376 58.032 58.9774 58.1951 59.0559L59.1844 59.5337C59.6873 59.7767 59.9522 60.3366 59.8137 60.8653C59.2791 62.9078 56.2706 64.6023 56.1429 64.6738C56.0606 64.7191 55.9703 64.7416 55.8808 64.7416ZM55.5952 63.2136L55.9528 63.5481C56.8581 62.9804 58.4712 61.766 58.7767 60.5986C58.787 60.5587 58.76 60.511 58.7154 60.4893L57.7261 60.0115C57.7106 60.004 57.6947 60.0001 57.6784 60.0001C57.6438 60.0001 57.5972 60.0178 57.5801 60.0679C57.3379 60.7785 56.7718 62.0674 55.5952 63.2136Z" fill="#232323"/>
<g opacity="0.5">
<path opacity="0.5" d="M57.7593 60.4218C57.7712 60.3867 57.7963 60.3702 57.8158 60.3623C57.8361 60.354 57.8683 60.3473 57.9053 60.365L58.7243 60.7607C58.7438 60.7067 58.7637 60.6523 58.7776 60.5982C58.788 60.5587 58.7609 60.5106 58.716 60.4889L57.7267 60.0111C57.6897 59.993 57.6575 59.9997 57.6372 60.0084C57.6181 60.0163 57.5926 60.0328 57.5807 60.0679C57.3384 60.7785 56.7728 62.0675 55.5957 63.2136L55.8702 63.4704C56.9808 62.3491 57.5238 61.1127 57.7593 60.4218Z" fill="white"/>
</g>
<path d="M54.4654 61.5351C52.3484 60.3037 48.1978 58.6683 45.4407 62.5983C45.2052 62.9341 45.1563 63.3653 45.3019 63.748C45.7136 65.6201 48.8418 70.7708 55.1194 72.7869C55.8147 73.0102 56.5785 72.8212 57.0706 72.2858C58.3256 70.9203 59.8579 68.1073 56.7953 63.6999C56.1839 62.8189 55.3955 62.0756 54.4654 61.5351Z" fill="#9E6C4B"/>
<path d="M55.7054 73.4096C55.4504 73.4096 55.1978 73.3697 54.954 73.2916C51.4093 72.1534 49.0058 70.0955 47.6135 68.5694C45.8847 66.6744 45.014 64.8785 44.7864 63.8969C44.5947 63.3567 44.6738 62.7606 45.0008 62.2942C46.2582 60.5022 47.9155 59.5936 49.9267 59.5936C51.7947 59.5936 53.5733 60.4001 54.7364 61.0763C55.7241 61.6507 56.5654 62.4319 57.2365 63.3974C58.6606 65.447 59.2824 67.396 59.0847 69.1904C58.9439 70.4659 58.3997 71.6275 57.4668 72.6426C57.0185 73.1303 56.3765 73.4096 55.7054 73.4096ZM49.9267 60.6565C48.2866 60.6565 46.9254 61.4121 45.8804 62.9014C45.7471 63.0912 45.718 63.3374 45.8028 63.5599C45.8119 63.584 45.8195 63.6088 45.8251 63.6345C46.0192 64.5175 46.9102 66.2152 48.4079 67.8568C49.7127 69.2867 51.9646 71.2152 55.2842 72.2812C55.421 72.325 55.5626 72.3475 55.7054 72.3475C56.0762 72.3475 56.4294 72.1944 56.6744 71.9277C58.0222 70.4612 59.0604 67.8959 56.3538 64.001C55.7722 63.1642 55.0455 62.4887 54.1938 61.9932C53.1456 61.3832 51.5541 60.6565 49.9267 60.6565Z" fill="#232323"/>
<g opacity="0.5">
<path opacity="0.5" d="M46.0033 64.166C45.9978 64.1407 45.9902 64.1155 45.9811 64.0914C45.8963 63.8689 45.9254 63.6223 46.0582 63.4329C47.2333 61.7581 48.6976 61.1979 50.1304 61.1979C51.7335 61.1979 53.2972 61.8989 54.3725 62.5247C55.2242 63.0202 55.9509 63.6957 56.5325 64.5325C57.1109 65.365 57.517 66.1363 57.7871 66.8496C57.5337 65.9923 57.0795 65.045 56.3543 64.0015C55.7727 63.1646 55.0459 62.4892 54.1943 61.9936C53.119 61.3683 51.5553 60.6668 49.9522 60.6668C48.5194 60.6668 47.0555 61.2271 45.88 62.9019C45.7468 63.0916 45.7181 63.3378 45.8028 63.5604C45.812 63.5844 45.8196 63.6093 45.8251 63.6349C45.8629 63.8062 45.9309 64.0184 46.0272 64.2599C46.0188 64.2279 46.0101 64.1952 46.0033 64.166Z" fill="white"/>
</g>
<g opacity="0.2">
<g opacity="0.2">
<path opacity="0.2" d="M57.8569 66.3635C57.8569 66.3635 55.1976 70.9331 45.8105 63.5801C45.8105 63.5801 48.9571 72.6872 56.8787 72.4647C56.8787 72.4647 59.285 69.8465 57.8569 66.3635Z" fill="#232323"/>
</g>
</g>
<g opacity="0.2">
<g opacity="0.2">
<path opacity="0.2" d="M44.7951 65.5883C44.7951 65.5883 45.2235 68.0443 47.2531 70.1421C48.5709 71.504 47.1118 73.6918 45.3468 72.9867C44.7211 72.7366 44.0604 72.3716 43.3742 71.8567L43.2676 73.6231L43.4577 75.4072L44.5723 75.395C44.5723 75.395 50.4044 78.7742 54.619 73.1149C54.619 73.1149 46.0696 68.9297 45.8019 64.843L44.7951 65.5883Z" fill="#232323"/>
</g>
</g>
<path d="M35.2475 77.4658C35.2475 77.4658 26.8373 83.3543 34.0644 93.0276L44.2133 93.3365C44.2129 93.3361 34.249 89.1694 35.2475 77.4658Z" fill="#FF5933"/>
<g opacity="0.5">
<path opacity="0.5" d="M35.0589 78.4404C35.0589 78.4404 29.3761 84.5964 35.2674 92.7413H33.6678C33.6678 92.7413 27.9722 82.3306 35.1456 77.6647L35.0589 78.4404Z" fill="white"/>
</g>
<path d="M34.2613 71.2993C34.2613 71.2993 26.5147 74.4607 24.8329 84.4697C24.8329 84.4697 23.801 87.5061 18.4901 86.9411C18.4901 86.9411 15.2628 88.1437 18.7864 91.7881C18.7864 91.7881 25.0174 99.0235 29.6708 94.7254C29.6708 94.7254 32.2815 92.5724 33.8436 92.8107C33.8436 92.8107 26.9817 84.4544 35.2483 77.0445L35.5736 72.5286L34.2613 71.2993Z" fill="#FFECB3"/>
<path d="M29.6705 94.9026C29.6705 94.9026 32.2812 92.7496 33.8433 92.9879C33.8433 92.9879 26.9814 84.6315 35.2479 77.2217L35.5733 72.7058L34.2614 71.476C34.2614 71.476 29.7755 73.3079 26.8899 78.5947C26.8517 78.8093 26.7992 79.0212 26.726 79.2287C26.22 80.6656 25.9766 82.0998 25.9957 83.6258C26.0084 84.6445 26.1118 85.6794 25.8731 86.6705C25.6341 87.6612 24.9586 88.6298 23.9598 88.8673C24.4502 89.0815 24.9013 89.3842 25.2836 89.7562C24.597 90.3449 23.4347 90.2663 22.8352 89.5905C22.9422 90.5145 23.0488 91.4385 23.1558 92.3625C22.5711 92.2911 22.0504 91.848 21.8904 91.2858C21.4147 92.2915 21.6613 93.4728 21.9414 94.5487C21.9577 94.6114 21.9744 94.6741 21.9911 94.7373C24.1933 96.1836 27.1612 97.2209 29.6705 94.9026Z" fill="#FF5933"/>
<g opacity="0.5">
<path opacity="0.5" d="M34.5531 72.202C34.5531 72.202 27.0284 76.4267 26.0598 85.1152C26.0598 85.1152 24.5056 89.1884 18.7734 87.0252L20.3869 86.7672C20.3869 86.7672 21.706 86.4886 22.1046 86.5608C22.5027 86.633 24.1345 85.5283 24.1345 85.5283C24.1345 85.5283 26.1215 83.8089 26.0081 80.2632C26.0081 80.2628 29.2867 72.1132 34.5531 72.202Z" fill="white"/>
</g>
<path d="M76.3254 51.1971C76.3254 51.1971 95.8897 52.9962 93.8363 75.4056C93.8363 75.4056 92.3652 89.355 77.4512 91.0235C77.4512 91.0235 81.4128 77.7969 72.7907 71.4815C72.7907 71.4815 77.1019 61.7108 69.6445 54.4418C69.6445 54.4422 73.4522 53.672 76.3254 51.1971Z" fill="#FF5933"/>
<g opacity="0.5">
<path opacity="0.5" d="M89.849 58.9597C88.2073 56.8414 85.9379 54.9062 82.8089 53.4559C81.1238 52.6747 79.1914 52.034 76.9725 51.5814L75.8232 52.6266C75.8232 52.6266 78.9929 52.3314 82.7432 54.5555C82.9708 55.5268 83.8121 56.729 85.0723 57.739C85.9904 58.4752 86.9622 58.9727 87.8115 59.1972C90.32 62.5248 92.5802 67.5236 93.8237 75.0348C93.8237 75.0348 95.2984 65.9908 89.849 58.9597Z" fill="white"/>
</g>
<path d="M69.4908 55.0036L64.5992 65.4048L62.3926 65.5236L62.3875 65.6305C59.76 65.9982 52.3468 67.4517 54.4125 71.9727C54.4125 71.9727 56.6052 75.0923 62.2944 74.5013C65.4039 74.7566 72.6485 72.4351 72.6485 72.4351C77.4546 60.281 69.4908 55.0036 69.4908 55.0036Z" fill="#FF5933"/>
<g opacity="0.5">
<path opacity="0.5" d="M55.7978 71.6704C55.7664 71.6258 55.737 71.5812 55.7095 71.5363C55.077 70.5014 55.4657 69.1489 56.5067 68.518C57.8942 67.6769 60.3808 66.4518 63.6526 66.0044C63.6526 66.0044 55.4291 65.9535 54.4083 69.9187L54.4433 69.8962C54.242 70.6142 54.2802 71.2277 54.2802 71.2277C56.601 76.0084 62.2019 74.0779 62.2019 74.0779C57.6273 74.4492 55.7978 71.6704 55.7978 71.6704Z" fill="white"/>
</g>
<path d="M36.0659 54.6209C36.0659 54.6209 25.0582 62.2178 31.8235 69.4414C31.8235 69.4414 42.3733 78.631 46.6512 71.4504C46.6512 71.4504 48.0554 67.189 40.9795 64.5392C40.9795 64.5392 39.257 60.339 43.2481 56.8244L36.0659 54.6209Z" fill="#FF5933"/>
<g opacity="0.5">
<path opacity="0.5" d="M33.4302 69.6186C33.2727 69.4501 33.1267 69.2816 32.9879 69.1128C32.9755 68.4839 32.7436 67.7007 32.2973 66.9341C32.0129 66.4453 31.6787 66.0294 31.3331 65.7059C30.4173 60.6053 35.9888 56.0579 37.3676 55.0202L36.0656 54.6205C36.0656 54.6205 29.1221 59.4134 29.6552 65.0052C29.7932 66.4536 30.4317 67.9552 31.8231 69.441C31.8231 69.441 32.1422 69.7184 32.6883 70.1374C34.4028 71.4524 38.3744 74.1747 41.8992 74.1921C37.6942 73.3316 33.4302 69.6186 33.4302 69.6186Z" fill="white"/>
</g>
<path d="M51.9468 95.2324C51.3067 95.2324 50.9085 95.202 50.8648 95.1989C45.0228 94.7795 40.6745 92.7113 37.9401 89.0508C36.7968 87.5208 35.94 85.7082 35.393 83.6637C34.9583 82.0386 34.7172 80.264 34.677 78.3891C34.6086 75.2032 35.1365 72.8553 35.1591 72.7567C35.2188 72.4967 35.479 72.3338 35.7415 72.3929C36.0037 72.4521 36.1679 72.7105 36.1083 72.9705C36.1031 72.9934 35.5812 75.3216 35.6508 78.3955C35.7145 81.205 36.2992 85.2356 38.7257 88.4803C41.2843 91.9017 45.3931 93.8381 50.938 94.2358C50.9396 94.2358 50.9412 94.2362 50.9424 94.2362C50.9567 94.2374 52.4062 94.3491 54.3228 94.1309C56.0711 93.932 58.5792 93.4101 60.6016 92.0532C60.8243 91.9037 61.127 91.9617 61.2774 92.1826C61.4282 92.4036 61.3697 92.7038 61.1469 92.853C58.9551 94.3234 56.2744 94.8825 54.4115 95.0924C53.4286 95.2036 52.5721 95.2324 51.9468 95.2324Z" fill="#232323"/>
<path d="M47.5125 101.635H29.8155C28.8584 101.635 27.9543 101.219 27.3349 100.494C26.7199 99.7747 26.4566 98.8298 26.6121 97.9023C26.9124 96.1103 28.2618 94.6173 30.5137 93.5848C31.5058 93.1299 32.4601 92.8593 33.0758 92.7137C31.7727 90.466 31.0105 88.2822 30.8092 86.2141C30.6318 84.394 30.8852 82.6616 31.5622 81.0653C32.7154 78.3446 34.6853 76.9791 34.7688 76.9223C34.9904 76.7712 35.2935 76.8268 35.4459 77.0465C35.5982 77.2663 35.5421 77.5669 35.3206 77.718C35.3031 77.7303 33.4764 79.0066 32.4414 81.4835C31.0551 84.8012 31.6665 88.6073 34.2581 92.7965C34.3432 92.9342 34.3535 93.1047 34.2851 93.251C34.2171 93.3974 34.0795 93.5008 33.9188 93.5256C33.8619 93.5347 28.1734 94.4733 27.572 98.0601C27.4634 98.7071 27.6476 99.3668 28.0772 99.8698C28.5112 100.378 29.1445 100.669 29.8151 100.669H47.5121C47.8116 100.669 48.0893 100.55 48.2946 100.333C48.499 100.117 48.6013 99.8347 48.5826 99.5388C48.4131 96.8871 47.7341 95.0939 46.7201 94.6193C46.4771 94.5053 46.3728 94.2177 46.4878 93.9766C46.6028 93.7355 46.8928 93.6326 47.1358 93.7462C48.8841 94.5649 49.4156 97.3152 49.554 99.4781C49.5894 100.035 49.3893 100.587 49.0042 100.994C48.6196 101.401 48.0758 101.635 47.5125 101.635Z" fill="#232323"/>
<path d="M78.7488 101.396H61.4393C60.767 101.396 60.1194 101.116 59.6624 100.626C59.2113 100.143 58.9817 99.4917 59.0323 98.8392C59.2097 96.5524 60.7814 94.8026 61.4592 94.1473C60.5729 92.5755 59.9341 90.6335 59.5593 88.3681C59.2407 86.4404 59.1102 84.2728 59.1719 81.9249C59.2769 77.9377 59.8911 74.8524 59.917 74.723C59.9699 74.4614 60.2256 74.2917 60.4898 74.3442C60.7535 74.3963 60.9242 74.6508 60.8717 74.9123C60.8653 74.9435 60.2459 78.0584 60.1445 81.9659C60.0518 85.5385 60.384 90.5246 62.4931 93.9911C62.6172 94.195 62.5726 94.4586 62.388 94.6113C62.3666 94.629 60.1926 96.4625 60.0025 98.9129C59.9722 99.3039 60.1047 99.6791 60.376 99.9699C60.6493 100.263 61.0367 100.43 61.4385 100.43H78.748C79.3988 100.43 79.9776 100.093 80.2955 99.5284C80.6105 98.969 80.5974 98.3109 80.2601 97.7672C79.2922 96.208 78.1959 95.1273 77.0021 94.5557C76.7861 94.4523 76.6783 94.2085 76.7479 93.9808C76.7599 93.9421 77.935 90.039 78.034 85.3901C78.1243 81.1607 77.316 75.4221 72.9526 72.102C72.7915 71.9797 72.7243 71.771 72.7832 71.5785C72.7915 71.5517 73.6074 68.8455 73.6181 65.5113C73.632 61.1055 72.3102 57.7452 69.6887 55.5235C69.4843 55.3503 69.4604 55.0453 69.635 54.8429C69.8097 54.6401 70.1168 54.6165 70.3212 54.7897C71.8965 56.1248 73.0537 57.8623 73.7609 59.9538C74.321 61.6101 74.6003 63.4897 74.5915 65.5405C74.5792 68.3701 74.0274 70.7097 73.8051 71.5402C75.7519 73.1065 77.1728 75.2402 78.0316 77.8876C78.7409 80.0737 79.0691 82.6126 79.0066 85.4339C78.9191 89.4073 78.0937 92.7648 77.7894 93.8763C79.0094 94.5604 80.1176 95.6975 81.0887 97.2618C81.6133 98.1073 81.6344 99.1311 81.1451 99.9999C80.6535 100.874 79.7572 101.396 78.7488 101.396Z" fill="#232323"/>
<path d="M62.0756 94.7238C61.8747 94.7238 61.687 94.5996 61.6166 94.4011C61.5275 94.1494 61.6603 93.874 61.9141 93.7853C62.0032 93.7541 64.1286 93.0195 67.1029 92.6301C68.8532 92.4008 70.5327 92.3413 72.0952 92.4521C74.0627 92.5918 75.85 93.0049 77.4081 93.6791C77.6544 93.7856 77.7669 94.0705 77.6595 94.3147C77.5521 94.5589 77.2649 94.6706 77.0187 94.5641C73.7079 93.1311 69.8684 93.242 67.2302 93.5876C64.3554 93.964 62.2582 94.6891 62.2371 94.6962C62.1838 94.7148 62.1293 94.7238 62.0756 94.7238Z" fill="#232323"/>
<path d="M47.8144 95.3583C47.7364 95.3583 47.6569 95.3397 47.5833 95.3003C43.8122 93.279 33.9557 93.5292 33.8571 93.5319C33.5898 93.5387 33.3642 93.3295 33.3566 93.0628C33.3491 92.7961 33.5607 92.574 33.8296 92.5665C34.2449 92.5551 44.0481 92.3073 48.0463 94.4504C48.283 94.5771 48.3709 94.8702 48.2432 95.1046C48.1549 95.2663 47.9874 95.3583 47.8144 95.3583Z" fill="#232323"/>
<path d="M61.5335 75.0644C59.1165 75.0644 57.25 74.613 55.8641 74.0524C54.6127 73.5462 53.7538 72.4565 53.5673 71.1379C53.3815 69.8233 53.9026 68.5458 54.9615 67.7204C58.0946 65.279 63.2722 64.9989 63.4914 64.9882C63.789 64.9733 64.0435 65.2017 64.0579 65.4972C64.0726 65.7931 63.8427 66.0444 63.5447 66.059C63.4946 66.0614 58.4892 66.3348 55.6298 68.5632C54.8772 69.1498 54.5065 70.0561 54.6385 70.9884C54.771 71.9246 55.382 72.6983 56.2727 73.0589C59.2167 74.2497 64.5145 74.8987 73.0341 71.2279C73.3077 71.1099 73.6264 71.2346 73.7453 71.506C73.8643 71.7775 73.7386 72.0935 73.4649 72.2115C68.5175 74.3436 64.5861 75.0644 61.5335 75.0644Z" fill="#232323"/>
<path d="M77.9044 91.7995C77.651 91.7995 77.4394 91.6027 77.4263 91.349C77.4123 91.087 77.6152 90.8633 77.8798 90.8495C77.9024 90.8483 80.1762 90.713 82.9846 89.4457C85.5639 88.2818 89.1408 85.8929 91.5344 81.1217C94.2445 75.7189 94.3977 69.3345 91.954 63.6058C89.6679 58.246 84.9803 51.931 75.5992 51.931C75.4071 51.931 75.2141 51.9337 75.018 51.9389C74.7527 51.946 74.5327 51.7392 74.5256 51.4765C74.5184 51.2141 74.7269 50.9951 74.9918 50.988C79.6181 50.8622 83.6099 52.1618 86.8559 54.8513C89.3242 56.8966 91.3367 59.7176 92.8371 63.2349C94.0751 66.1367 94.6944 69.3234 94.6284 72.4498C94.5607 75.6629 93.8085 78.7229 92.3928 81.5451C91.2778 83.7679 89.825 85.6905 88.0755 87.2596C86.6745 88.5158 85.0822 89.5483 83.3426 90.3287C80.3763 91.6591 78.0285 91.794 77.9303 91.7991C77.9211 91.7995 77.9128 91.7995 77.9044 91.7995Z" fill="#232323"/>
<path d="M26.3499 96.3438C24.2591 96.3438 22.3902 95.7422 20.7772 94.5467C18.8718 93.1343 17.6482 91.1375 16.8931 89.7586C16.4615 88.9703 16.5017 88.0538 17.0002 87.3069C17.4954 86.5648 18.3602 86.1569 19.256 86.2425C20.3158 86.3435 21.3436 86.2803 22.3119 86.0543C23.6664 85.7382 24.666 84.645 24.8581 83.2692C25.1263 81.3494 25.7496 79.5124 26.7111 77.8096C27.478 76.4504 28.4606 75.1741 29.6313 74.0161C31.6238 72.0446 33.4568 71.1052 33.534 71.0661C33.7735 70.945 34.0666 71.0389 34.1888 71.2764C34.3109 71.5139 34.2162 71.8043 33.9771 71.9258C33.9592 71.9349 32.1815 72.8499 30.2952 74.7235C28.5684 76.4386 26.3908 79.3361 25.8232 83.4022C25.7027 84.265 25.3287 85.0612 24.7412 85.7043C24.1521 86.3494 23.3895 86.7956 22.5354 86.9948C21.4634 87.245 20.3289 87.3156 19.1634 87.2043C18.6176 87.1523 18.1132 87.3902 17.8124 87.8407C17.5161 88.2846 17.4926 88.8295 17.7492 89.2986C19.5154 92.5255 22.2765 96.1178 27.9995 95.2502C28.2656 95.2099 28.5135 95.391 28.5544 95.6546C28.595 95.9181 28.4124 96.1643 28.1467 96.205C27.5309 96.2973 26.9318 96.3438 26.3499 96.3438Z" fill="#232323"/>
<path d="M40.452 64.6249C40.4484 64.6249 40.4444 64.6249 40.4408 64.6249C40.1453 64.6189 39.9102 64.3763 39.9161 64.0828C40.006 59.7215 42.4405 56.4098 42.5439 56.2709C42.7198 56.035 43.0555 55.9853 43.293 56.16C43.5305 56.3344 43.581 56.6666 43.4052 56.9026C43.3817 56.9341 41.0697 60.0916 40.987 64.1049C40.981 64.3945 40.7423 64.6249 40.452 64.6249Z" fill="#232323"/>
<path d="M43.9352 93.6996C43.7979 93.6996 43.6611 93.6479 43.5565 93.5442C41.7775 91.7798 40.3789 89.6323 39.3987 87.1613C38.6187 85.1941 38.1011 83.019 37.8609 80.6964C37.4523 76.7498 37.979 73.7765 38.0017 73.6519C38.0542 73.3631 38.3326 73.1713 38.6238 73.223C38.915 73.2751 39.1083 73.5513 39.0562 73.8401C39.0487 73.8827 38.5327 76.8236 38.9297 80.6187C39.2937 84.0977 40.5237 89.0338 44.3139 92.7934C44.5231 93.0009 44.5231 93.337 44.3139 93.5446C44.2092 93.6475 44.072 93.6996 43.9352 93.6996Z" fill="#232323"/>
<path d="M42.828 74.5448C42.7214 74.5448 42.6144 74.5412 42.5066 74.5341C41.5813 74.4722 40.4547 74.3585 39.4157 74.222C36.305 73.8133 33.5005 72.3255 31.5195 70.0332C29.708 67.937 28.9578 65.6893 29.2907 63.3533C29.4586 62.1736 29.9069 60.9714 30.6225 59.7811C31.1874 58.8413 31.9201 57.9059 32.8 57C34.2917 55.4649 35.68 54.5535 35.7381 54.5152C35.9629 54.3688 36.2644 54.4308 36.4124 54.6533C36.56 54.8762 36.4975 55.1753 36.2732 55.322C36.26 55.3307 34.9032 56.2236 33.485 57.6865C32.1986 59.0137 30.5939 61.0981 30.2546 63.4914C29.9638 65.5398 30.6384 67.5291 32.259 69.4047C34.0841 71.5163 36.6713 72.8873 39.5442 73.2649C40.5633 73.399 41.6672 73.5103 42.5726 73.5706C44.0627 73.6701 45.4546 72.8924 46.1173 71.5901C46.1766 71.4737 46.2132 71.3869 46.2295 71.3458C46.6436 69.3238 45.4029 67.7338 44.2851 66.7542C43.6029 66.1565 42.7826 65.6755 41.847 65.3248C39.7435 64.5365 38.6683 63.721 38.5601 62.8325C38.4893 62.2513 38.8624 61.8288 39.0943 61.6706L39.646 62.4663C39.646 62.4663 39.6488 62.4644 39.654 62.4608C39.6389 62.4723 39.5064 62.576 39.5275 62.7224C39.5454 62.8463 39.7582 63.5095 42.1915 64.4217C43.2381 64.8139 44.1594 65.3556 44.9299 66.031C46.2486 67.1866 47.7081 69.0879 47.1746 71.5822C47.1703 71.6027 47.1647 71.6228 47.1575 71.6425C47.152 71.6583 47.0991 71.8047 46.9869 72.0252C46.1945 73.5805 44.5862 74.5448 42.828 74.5448Z" fill="#232323"/>
<path d="M42.2879 17.6147C42.2879 17.6147 39.022 10.7923 34.1387 9.19442C32.8992 8.78884 31.5523 9.51124 31.2627 10.7461C30.4822 14.0741 29.5653 21.3139 33.8897 28.2219L40.6649 21.9941L42.2879 17.6147Z" fill="#FF5933"/>
<path d="M33.8888 28.8417C33.8609 28.8417 33.8331 28.8397 33.8053 28.8362C33.6203 28.8113 33.4564 28.706 33.3577 28.549C31.4157 25.4467 30.2987 21.9598 30.0374 18.1844C29.8186 15.023 30.2514 12.3184 30.6531 10.6061C30.7979 9.98826 31.1627 9.43393 31.6795 9.04492C32.1795 8.66892 32.8008 8.46179 33.4289 8.46179C33.736 8.46179 34.0403 8.51032 34.3335 8.60619C36.4832 9.30966 38.5732 11.0014 40.5451 13.6346C41.9918 15.5667 42.8168 17.2774 42.8515 17.3492C42.9235 17.4995 42.9314 17.6723 42.8733 17.8289L41.2503 22.2083C41.2161 22.3002 41.1608 22.3827 41.0884 22.449L34.3132 28.6768C34.1975 28.7833 34.0455 28.8417 33.8888 28.8417ZM33.4293 9.70104C32.6871 9.70104 32.0319 10.1997 31.8704 10.8866C31.0732 14.2864 30.3317 20.8389 34.03 27.247L40.1294 21.6406L41.6076 17.6526C40.9973 16.478 38.0234 11.1186 33.9425 9.7831C33.7758 9.72866 33.6032 9.70104 33.4293 9.70104Z" fill="#232323"/>
<g opacity="0.2">
<g opacity="0.2">
<path opacity="0.2" d="M35.4373 9.75659C35.6788 10.7978 37.3567 18.9746 31.7832 23.7884C31.9149 24.1762 32.0589 24.566 32.2176 24.957L32.9754 26.5498L41.8322 16.7565C40.8998 15.0935 38.5882 11.4472 35.4373 9.75659Z" fill="#232323"/>
</g>
</g>
<g opacity="0.5">
<path opacity="0.5" d="M32.406 11.2409C32.5031 10.8275 32.7696 10.4811 33.1567 10.2656C33.4057 10.1268 33.6849 10.0561 33.965 10.0561C34.1376 10.0561 34.3111 10.083 34.4777 10.1374C35.0573 10.3272 35.6134 10.5998 36.1445 10.9281C35.4563 10.4384 34.7192 10.0376 33.9419 9.78312C33.7752 9.72867 33.6022 9.70184 33.4292 9.70184C33.1491 9.70184 32.8699 9.77247 32.6209 9.91134C32.2338 10.1272 31.9673 10.4736 31.8702 10.8866C31.073 14.2864 30.3312 20.8389 34.0298 27.247L34.2542 27.0406C30.9111 20.814 31.6319 14.5417 32.406 11.2409Z" fill="white"/>
</g>
<path d="M40.0733 18.1458C40.0733 18.1458 38.0792 13.9806 35.0981 13.0053C34.3411 12.7575 33.5189 13.1986 33.3423 13.9526C32.8657 15.9845 32.306 20.4045 34.9462 24.6217L39.0824 20.8195L40.0733 18.1458Z" fill="#FFF4D1"/>
<path d="M34.9455 25.1528C34.9216 25.1528 34.8977 25.1512 34.8738 25.1481C34.7155 25.1268 34.5747 25.0364 34.4904 24.9019C33.2914 22.9864 32.6017 20.8338 32.4406 18.504C32.3057 16.555 32.5726 14.8877 32.82 13.8323C33.0142 13.0053 33.7899 12.4048 34.665 12.4048C34.8691 12.4048 35.0711 12.4372 35.2657 12.5007C38.4281 13.5356 40.4716 17.7394 40.5567 17.9177C40.6184 18.0468 40.6251 18.1947 40.5754 18.3288L39.5845 21.0026C39.5555 21.0812 39.5077 21.1522 39.4457 21.209L35.3094 25.0112C35.21 25.1027 35.0799 25.1528 34.9455 25.1528ZM34.665 13.4669C34.2827 13.4669 33.9458 13.7218 33.8635 14.0726C33.3889 16.0962 32.9465 19.9689 35.0704 23.7822L38.6234 20.5162L39.4894 18.1793C39.0634 17.3717 37.304 14.2864 34.9295 13.5096C34.844 13.4811 34.7549 13.4669 34.665 13.4669Z" fill="#232323"/>
<g opacity="0.2">
<g opacity="0.2">
<path opacity="0.2" d="M35.1266 15.0147C35.3032 14.2608 36.1259 13.8197 36.8825 14.0674C36.923 14.0808 36.9624 14.0966 37.0026 14.1112C36.429 13.6323 35.7901 13.2318 35.0972 13.0049C34.3402 12.7572 33.5179 13.1983 33.3413 13.9522C32.8648 15.9841 32.3051 20.4041 34.9452 24.6214L35.7798 23.854C34.2523 20.2412 34.7189 16.7534 35.1266 15.0147Z" fill="#232323"/>
</g>
</g>
<path d="M64.2012 17.6147C64.2012 17.6147 67.4671 10.7924 72.3503 9.19448C73.5899 8.7889 74.9368 9.5113 75.2264 10.7462C76.0068 14.0741 76.9238 21.3139 72.5994 28.2219L65.8242 21.9941L64.2012 17.6147Z" fill="#FF5933"/>
<path d="M72.5996 28.8417C72.4432 28.8417 72.2913 28.7833 72.1747 28.6764L65.3995 22.4486C65.3271 22.3823 65.2719 22.2999 65.2376 22.208L63.6147 17.8286C63.5566 17.6723 63.5645 17.4995 63.6365 17.3488C63.6711 17.277 64.4962 15.5663 65.9429 13.6342C67.9148 11.0011 70.0048 9.30929 72.1544 8.60583C72.4472 8.50996 72.7515 8.46143 73.059 8.46143C73.6875 8.46143 74.3089 8.66856 74.8085 9.04456C75.3256 9.43357 75.69 9.9879 75.8348 10.6057C76.2366 12.318 76.669 15.0226 76.4506 18.184C76.1892 21.9594 75.0722 25.4463 73.1302 28.5486C73.032 28.7056 72.8677 28.8114 72.6827 28.8358C72.6553 28.8398 72.6274 28.8417 72.5996 28.8417ZM66.3594 21.641L72.4587 27.2474C76.157 20.8393 75.4155 14.2868 74.6184 10.8871C74.4573 10.2002 73.8017 9.70146 73.0594 9.70146C72.8856 9.70146 72.7129 9.72908 72.5463 9.78353C68.4653 11.119 65.4918 16.4781 64.8812 17.653L66.3594 21.641Z" fill="#232323"/>
<g opacity="0.2">
<g opacity="0.2">
<path opacity="0.2" d="M75.2467 10.835C75.2375 10.8977 75.2216 10.9979 75.1965 11.1313C74.8723 12.8542 73.0516 19.847 65.3066 16.0898L65.0254 17.2064C65.0254 17.2064 70.9672 25.0238 73.0445 27.4754C76.8223 20.8574 75.9941 14.0785 75.2467 10.835Z" fill="#232323"/>
</g>
</g>
<g opacity="0.5">
<path opacity="0.5" d="M72.7245 10.3146C73.1617 10.1713 73.643 10.2183 74.0456 10.4428C74.3117 10.5911 74.5194 10.8022 74.6554 11.0535C74.6427 10.9979 74.6303 10.9411 74.6176 10.887C74.5205 10.4736 74.254 10.1272 73.867 9.91174C73.4644 9.68764 72.9831 9.64069 72.5459 9.78351C68.4582 11.1214 65.4899 16.4781 64.8809 17.653L65.0702 18.1635C65.7007 16.9511 68.6579 11.6453 72.7245 10.3146Z" fill="white"/>
</g>
<path d="M66.415 18.1458C66.415 18.1458 68.4092 13.9806 71.3902 13.0053C72.1472 12.7575 72.9695 13.1986 73.1461 13.9526C73.6227 15.9845 74.1823 20.4045 71.5422 24.6217L67.4059 20.8195L66.415 18.1458Z" fill="#FFF4D1"/>
<path d="M71.5428 25.1528C71.4087 25.1528 71.2783 25.1027 71.1788 25.0112L67.0426 21.209C66.9805 21.1522 66.9332 21.0812 66.9037 21.0026L65.9128 18.3288C65.8631 18.1947 65.8699 18.0468 65.9315 17.9177C66.0171 17.7394 68.0601 13.5356 71.2226 12.5007C71.4171 12.4372 71.6192 12.4048 71.8232 12.4048C72.6984 12.4048 73.4741 13.0049 73.6682 13.8323C73.9156 14.8877 74.1825 16.555 74.0477 18.504C73.8866 20.8342 73.1968 22.9868 71.9979 24.9019C71.9135 25.0368 71.7727 25.1268 71.6144 25.1481C71.5905 25.1512 71.5667 25.1528 71.5428 25.1528ZM67.8648 20.5166L71.4179 23.7826C73.5417 19.9689 73.0994 16.0965 72.6248 14.0726C72.5424 13.7218 72.2055 13.4669 71.8232 13.4669C71.7333 13.4669 71.6442 13.4811 71.5583 13.5096C69.1787 14.2884 67.4237 17.3713 66.9984 18.1793L67.8648 20.5166Z" fill="#232323"/>
<g opacity="0.2">
<g opacity="0.2">
<path opacity="0.2" d="M72.1052 14.9528C72.5571 14.8049 73.0309 14.9039 73.3782 15.167C73.309 14.7035 73.227 14.2935 73.1471 13.9527C72.9704 13.1987 72.1478 12.7576 71.3912 13.0054C68.4102 13.9811 66.416 18.1458 66.416 18.1458L67.1344 20.0846C67.2259 19.896 69.1946 15.9052 72.1052 14.9528Z" fill="#232323"/>
</g>
</g>
<path d="M75.9603 43.4969C77.6577 44.1179 80.2684 43.3726 80.2684 43.3726C77.5268 42.6273 75.5685 38.1568 75.5685 38.1568C76.442 26.7601 70.6625 20.2384 64.7664 16.583C62.8547 15.3978 60.806 14.5365 58.6953 13.9932C60.1751 12.2936 59.1918 10.5248 59.1918 10.5248C57.704 12.0675 54.8658 12.8854 52.5693 13.3115C48.7999 13.4279 45.0534 14.5176 41.7219 16.583C35.8255 20.2384 30.0459 26.7597 30.9195 38.1568C30.9195 38.1568 28.9612 42.6277 26.2196 43.3726C26.2196 43.3726 28.8307 44.1179 30.5277 43.4969C30.5277 43.4969 29.4831 46.6015 25.6973 46.9743C25.6973 46.9743 28.6795 56.9601 53.1135 57.0327H53.3745C77.8081 56.9601 80.7907 46.9743 80.7907 46.9743C77.0045 46.6019 75.9603 43.4969 75.9603 43.4969Z" fill="#FF5933"/>
<path d="M75.9603 43.4969C77.6577 44.1179 80.2684 43.3726 80.2684 43.3726C77.5268 42.6274 75.5685 38.1568 75.5685 38.1568C75.9305 33.4318 75.1472 29.5472 73.6881 26.3554C72.0703 24.6802 64.591 17.595 58.4069 22.8247C56.4776 24.4561 55.3034 26.7945 55.0607 29.2951C54.7846 32.1409 54.4664 36.4753 54.9609 37.5362H51.5275C52.0224 36.4749 51.7041 32.1409 51.4277 29.2951C51.185 26.7949 50.0107 24.4565 48.0814 22.8247C41.8667 17.569 34.288 24.8916 32.7084 26.5519C31.3069 29.7062 30.565 33.5297 30.9195 38.1568C30.9195 38.1568 28.9612 42.6278 26.2196 43.3726C26.2196 43.3726 28.8307 44.1179 30.5277 43.4969C30.5277 43.4969 29.4831 46.6016 25.6973 46.9744C25.6973 46.9744 28.6795 56.9602 53.1135 57.0328H53.3745C77.8081 56.9602 80.7907 46.9744 80.7907 46.9744C77.0045 46.6019 75.9603 43.4969 75.9603 43.4969Z" fill="#FFECB3"/>
<g opacity="0.5">
<path opacity="0.5" d="M59.1915 10.5251C57.7038 12.0678 54.8655 12.8857 52.5691 13.3118C51.9322 13.3315 51.2966 13.3812 50.6629 13.4566C48.1142 13.7592 45.6077 14.512 43.2643 15.7145C42.742 15.9828 42.2265 16.2704 41.7217 16.5833C35.8252 20.2387 30.0457 26.76 30.9196 38.1571C30.9196 38.1571 28.9613 42.628 26.2197 43.3729C26.2197 43.3729 27.5873 43.7627 28.9864 43.743C30.9049 42.222 32.1691 39.3379 32.1691 39.3379C31.2956 27.9413 37.0751 21.4196 42.9712 17.7641C43.3638 17.5207 43.7624 17.2923 44.1657 17.0761C45.0047 17.2386 46.2653 17.0713 47.5732 16.5632C48.7145 16.1197 49.6521 15.5101 50.2078 14.9073C51.4004 14.669 52.6081 14.5301 53.8182 14.4926C55.6747 14.1478 57.8844 13.5469 59.4493 12.5148C59.6784 11.4026 59.1915 10.5251 59.1915 10.5251Z" fill="white"/>
</g>
<g opacity="0.5">
<path opacity="0.5" d="M26.9471 48.1556C30.7333 47.7832 31.7775 44.6782 31.7775 44.6782C31.147 44.909 30.3904 44.9508 29.6883 44.9125C28.9739 45.7848 27.732 46.774 25.6973 46.9744C25.6973 46.9744 26.2343 48.7691 28.7137 50.8424C27.294 49.3132 26.9471 48.1556 26.9471 48.1556Z" fill="white"/>
</g>
<path d="M53.3769 57.6526C53.3761 57.6526 53.3757 57.6526 53.3749 57.6526H53.1139C47.4871 57.636 42.5259 57.0904 38.367 56.0306C35.0116 55.1761 32.1622 53.9857 29.8976 52.4924C25.9542 49.8924 25.132 47.2612 25.099 47.1503C25.0461 46.9732 25.0755 46.7818 25.1797 46.6284C25.284 46.4749 25.451 46.3759 25.6364 46.3573C27.5971 46.1644 28.7336 45.1563 29.3399 44.3499C29.1923 44.359 29.0399 44.3637 28.8836 44.3637C27.4499 44.3637 26.1042 43.9845 26.0477 43.9684C25.7784 43.8914 25.5938 43.6464 25.5958 43.3691C25.5974 43.0913 25.7856 42.8487 26.0557 42.7753C27.9937 42.2486 29.7054 39.3065 30.2862 38.0471C29.9099 32.7915 30.9044 28.1182 33.2442 24.1542C35.125 20.9679 37.8661 18.244 41.3922 16.0579C44.7336 13.9866 48.5739 12.8239 52.5025 12.6941C55.4848 12.1354 57.6416 11.2378 58.7419 10.0968C58.8795 9.95437 59.0768 9.88493 59.2741 9.91058C59.4714 9.93622 59.6445 10.053 59.7403 10.2258C59.7718 10.2826 60.0514 10.8034 60.1222 11.5649C60.1723 12.1058 60.1218 12.8495 59.7037 13.6299C61.6036 14.1988 63.4147 15.0135 65.099 16.0575C68.625 18.2436 71.3662 20.9675 73.247 24.1538C75.5864 28.1174 76.5813 32.7911 76.205 38.0463C76.7869 39.3057 78.5018 42.2494 80.4351 42.7749C80.7052 42.8483 80.8929 43.0909 80.8949 43.3687C80.8969 43.6464 80.712 43.8914 80.443 43.9684C80.3866 43.9845 79.0408 44.3637 77.6072 44.3637C77.4508 44.3637 77.2989 44.359 77.1517 44.3499C77.2424 44.471 77.345 44.5965 77.46 44.7227C78.3236 45.6704 79.4657 46.2204 80.8544 46.3573C81.0397 46.3755 81.2072 46.4749 81.311 46.6284C81.4149 46.7818 81.4447 46.9732 81.3918 47.1503C81.3588 47.2612 80.5365 49.8924 76.5932 52.4924C74.3286 53.9857 71.4792 55.1761 68.1238 56.0306C63.9629 57.09 59.0016 57.6356 53.3769 57.6526ZM26.6034 47.4593C26.728 47.6849 26.897 47.9599 27.1218 48.2704C27.7097 49.0824 28.8104 50.309 30.7146 51.542C34.115 53.7435 40.7613 56.3758 53.1155 56.4125H53.3729C73.3564 56.353 78.6884 49.6229 79.8853 47.4589C78.215 47.0967 77.1298 46.2255 76.4882 45.5063C75.6787 44.5992 75.3803 43.7293 75.368 43.6926C75.292 43.4665 75.3533 43.2172 75.5259 43.0515C75.6986 42.8858 75.9516 42.8325 76.1771 42.915C76.5558 43.0534 77.0363 43.1237 77.606 43.1237C77.8797 43.1237 78.1522 43.1071 78.4111 43.0815C76.3669 41.4879 75.0641 38.5577 74.9965 38.403C74.9559 38.3107 74.9388 38.2097 74.9464 38.1091C75.6496 28.9333 72.1133 21.8675 64.4359 17.1078C62.61 15.9758 60.6262 15.1295 58.539 14.5922C58.3302 14.5385 58.1639 14.3811 58.0994 14.1767C58.035 13.9724 58.0819 13.7494 58.2232 13.5873C58.8441 12.8744 58.9312 12.1512 58.8728 11.6237C57.498 12.6412 55.4231 13.4117 52.6847 13.9199C52.6533 13.9258 52.621 13.9294 52.5892 13.9301C48.8647 14.045 45.2213 15.1437 42.0537 17.1078C34.3763 21.8675 30.8399 28.9333 31.5432 38.1091C31.5508 38.2097 31.5337 38.3107 31.4931 38.403C31.4255 38.5573 30.1223 41.4879 28.0785 43.0815C28.337 43.1071 28.6099 43.1237 28.8836 43.1237C29.4528 43.1237 29.9338 43.0534 30.3125 42.915C30.538 42.8325 30.791 42.8854 30.9636 43.0515C31.1363 43.2176 31.1975 43.4665 31.1216 43.6926C31.1092 43.7293 30.8109 44.5992 30.0014 45.5063C29.3586 46.2259 28.2738 47.0971 26.6034 47.4593Z" fill="#232323"/>
<path d="M45.8251 35.1192C47.3692 33.5877 47.3736 31.109 45.8349 29.5829C44.2962 28.0568 41.7971 28.0612 40.2529 29.5927C38.7088 31.1242 38.7044 33.6029 40.2431 35.129C41.7818 36.6551 44.2809 36.6508 45.8251 35.1192Z" fill="#232323"/>
<path d="M45.0654 32.4078C45.5918 31.8856 45.5935 31.0407 45.069 30.5205C44.5446 30.0004 43.6926 30.002 43.1661 30.5241C42.6397 31.0463 42.638 31.8913 43.1625 32.4114C43.6869 32.9316 44.5389 32.93 45.0654 32.4078Z" fill="white"/>
<path d="M66.2441 35.1292C67.7828 33.6031 67.7784 31.1244 66.2343 29.5929C64.6901 28.0613 62.191 28.057 60.6523 29.5831C59.1136 31.1092 59.118 33.5879 60.6621 35.1194C62.2063 36.6509 64.7054 36.6553 66.2441 35.1292Z" fill="#232323"/>
<path d="M63.3249 32.4112C63.8493 31.8911 63.8477 31.0461 63.3212 30.5239C62.7947 30.0018 61.9428 30.0002 61.4183 30.5203C60.8939 31.0405 60.8955 31.8855 61.422 32.4076C61.9485 32.9298 62.8004 32.9314 63.3249 32.4112Z" fill="white"/>
<path d="M57.0006 37.9086L53.2442 38.2578L49.4879 37.9086C49.4879 37.9086 38.9703 39.3988 43.2274 46.1052C43.2274 46.1052 47.0216 52.4537 52.994 53.1394C53.1607 53.1564 53.3282 53.1564 53.4948 53.1394C59.4673 52.4537 63.2614 46.1052 63.2614 46.1052C67.5182 39.3988 57.0006 37.9086 57.0006 37.9086Z" fill="#FFF4D1"/>
<path d="M53.244 53.6831C53.1426 53.6831 53.0399 53.6779 52.9389 53.6677C52.9365 53.6673 52.9345 53.6673 52.9321 53.6669C51.4961 53.502 50.0649 53.012 48.6781 52.2099C47.581 51.5751 46.5094 50.7449 45.493 49.7416C43.8072 48.0779 42.8489 46.5131 42.7705 46.3825C41.6181 44.5649 41.3743 42.9141 42.045 41.4768C43.5518 38.2479 49.1734 37.4166 49.4121 37.3831C49.4538 37.3772 49.496 37.376 49.5378 37.3799L53.244 37.7244L56.9502 37.3799C56.992 37.376 57.0342 37.3772 57.0759 37.3831C57.3146 37.417 62.9362 38.2479 64.4431 41.4768C65.1141 42.9145 64.8699 44.5649 63.7175 46.3825C63.6387 46.5131 62.6804 48.0779 60.995 49.7416C59.9786 50.7449 58.907 51.5751 57.8099 52.2099C56.4236 53.012 54.9923 53.502 53.5559 53.6669C53.5535 53.6673 53.5515 53.6673 53.5491 53.6677C53.4481 53.6779 53.3454 53.6831 53.244 53.6831ZM53.0515 52.6111C53.1792 52.6241 53.3092 52.6237 53.4365 52.6111C56.3583 52.2746 58.7379 50.4656 60.2205 49.0074C61.8542 47.4 62.7914 45.8491 62.8006 45.8337C62.803 45.8298 62.8053 45.8258 62.8077 45.8219C63.7573 44.3262 63.9804 43.0143 63.4712 41.9226C62.2795 39.3688 57.5692 38.5371 56.9841 38.4432L53.2941 38.7865C53.2607 38.7896 53.2273 38.7896 53.1943 38.7865L49.5044 38.4432C48.92 38.5375 44.205 39.3739 43.0164 41.9238C42.508 43.0151 42.7312 44.3266 43.6803 45.8215C43.6827 45.8254 43.6855 45.8294 43.6878 45.8337C43.697 45.8487 44.6342 47.3996 46.2679 49.007C47.7497 50.4656 50.1297 52.2746 53.0515 52.6111Z" fill="#232323"/>
<g opacity="0.2">
<g opacity="0.2">
<path opacity="0.2" d="M60.186 38.7659C61.846 40.0158 62.7931 41.9462 60.9398 44.8654C60.9398 44.8654 57.1457 51.214 51.1732 51.8997C51.0065 51.9166 50.8391 51.9166 50.6724 51.8997C49.7849 51.7979 48.9472 51.5687 48.1611 51.2562C49.5363 52.1849 51.1617 52.9286 52.9931 53.1389C53.1598 53.1559 53.3273 53.1559 53.4939 53.1389C59.4664 52.4532 63.2605 46.1047 63.2605 46.1047C65.8943 41.9561 62.8731 39.8039 60.186 38.7659Z" fill="#232323"/>
</g>
</g>
<path d="M51.5274 37.9791C51.4645 37.9791 51.4009 37.9661 51.3404 37.9381C51.1169 37.8355 51.019 37.5723 51.1228 37.3506C51.4538 36.6404 51.4021 33.6451 50.984 29.3375C50.7469 26.8949 49.6132 24.7017 47.7925 23.1618C46.2312 21.8413 44.4634 21.2495 42.5381 21.4033C37.5721 21.7998 33.0949 26.9663 33.05 27.0184C32.8904 27.2046 32.6088 27.2275 32.421 27.0693C32.2333 26.9111 32.2102 26.6318 32.3697 26.4455C32.4179 26.3895 33.5663 25.0564 35.3786 23.6542C37.0665 22.3483 39.666 20.7449 42.4665 20.5211C44.6364 20.3476 46.623 21.0096 48.3717 22.4883C49.3694 23.3318 50.1813 24.3565 50.7855 25.5338C51.3798 26.6917 51.7454 27.9432 51.8727 29.2531C52.0549 31.1315 52.1698 32.7523 52.2136 34.0708C52.2983 36.6231 52.0942 37.3774 51.9335 37.7227C51.8576 37.8836 51.6961 37.9791 51.5274 37.9791Z" fill="#232323"/>
<path d="M54.9613 37.979C54.7926 37.979 54.6315 37.8839 54.5559 37.7221C54.3948 37.3769 54.1907 36.6229 54.2759 34.0703C54.3196 32.7517 54.4342 31.131 54.6168 29.2526C54.7441 27.9427 55.1096 26.6912 55.7039 25.5332C56.3082 24.3559 57.1201 23.3313 58.1178 22.4878C59.866 21.0091 61.853 20.3474 64.023 20.5206C66.8234 20.7443 69.423 22.3477 71.1108 23.6537C72.9232 25.0558 74.0716 26.389 74.1197 26.445C74.2792 26.6312 74.2562 26.9106 74.0684 27.0688C73.8807 27.227 73.599 27.2041 73.4395 27.0179C73.4228 26.9982 72.2871 25.6836 70.5464 24.3394C68.9576 23.1127 66.5235 21.6072 63.9486 21.4024C62.0249 21.2493 60.2579 21.8411 58.6969 23.1609C56.8758 24.7008 55.7425 26.8944 55.5055 29.3366C55.0874 33.6438 55.0353 36.6395 55.3666 37.3497C55.47 37.5714 55.3726 37.8346 55.149 37.9371C55.0878 37.9656 55.0241 37.979 54.9613 37.979Z" fill="#232323"/>
<path d="M57.5607 38.3312C57.5663 38.2389 57.5575 38.1461 57.5336 38.0558C57.4191 37.6257 56.8602 36.5423 54.6039 36.1596C53.7069 36.0073 52.7812 36.0073 51.8842 36.1596C49.6279 36.5423 49.0694 37.6253 48.9544 38.0558C48.9306 38.1457 48.9218 38.2389 48.9274 38.3312C49.1068 41.2429 52.1877 42.3026 53.113 42.5563C53.1985 42.5788 53.2896 42.5788 53.3747 42.5563C54.3004 42.3026 57.3813 41.2429 57.5607 38.3312Z" fill="#232323"/>
<path d="M55.5957 45.0453C55.5957 45.0453 55.5118 48.5508 53.5125 47.3226C53.5125 47.3226 51.6675 48.7615 50.8926 45.2122L53.2177 44.2168L55.5957 45.0453Z" fill="white"/>
<path d="M52.6641 48.0537C51.9306 48.0537 50.952 47.5771 50.4564 45.3057C50.4114 45.099 50.52 44.8895 50.7157 44.8059L53.0408 43.8104C53.1439 43.7662 53.2596 43.7623 53.3658 43.7994L55.7438 44.6283C55.9264 44.6918 56.0466 44.8646 56.0422 45.0564C56.0414 45.0844 56.0235 45.7516 55.8405 46.4298C55.4837 47.7499 54.7979 48.0269 54.2855 48.0269C54.0449 48.0269 53.7899 47.9626 53.5254 47.8351C53.3225 47.9393 53.0194 48.0537 52.6641 48.0537ZM51.4139 45.471C51.7062 46.5694 52.145 47.1683 52.6641 47.1683C52.974 47.1683 53.2338 46.9766 53.2366 46.9746C53.3841 46.8598 53.5882 46.8484 53.7473 46.9462C53.9546 47.0737 54.1403 47.1407 54.2847 47.1407C54.8062 47.1407 55.0577 46.0707 55.1285 45.3515L53.2342 44.6914L51.4139 45.471Z" fill="#232323"/>
<path d="M51.199 45.3831C49.7519 45.3831 48.6806 44.9992 48.0151 44.2421C47.1793 43.2908 47.3313 42.1171 47.3385 42.0674C47.3739 41.8129 47.6101 41.6353 47.8671 41.6704C48.1229 41.7056 48.3015 41.9387 48.2677 42.192C48.2653 42.2125 48.1762 43.0182 48.7299 43.64C49.2093 44.1781 50.0367 44.452 51.1899 44.4531C51.2309 44.4508 51.6378 44.4231 52.0252 44.2046C52.534 43.9177 52.781 43.4427 52.781 42.7519C52.781 42.495 52.9911 42.2867 53.25 42.2867C53.509 42.2867 53.719 42.495 53.719 42.7519C53.719 44.0704 53.0289 44.721 52.4497 45.0347C51.855 45.3566 51.2762 45.3811 51.2126 45.3827C51.2074 45.3827 51.2034 45.3831 51.199 45.3831Z" fill="#232323"/>
<path d="M55.2887 45.3831C55.2844 45.3831 55.2804 45.3831 55.276 45.3831C55.212 45.3815 54.6332 45.357 54.0389 45.0351C53.4597 44.7214 52.7695 44.0708 52.7695 42.7523C52.7695 42.4955 52.9796 42.2871 53.2385 42.2871C53.4975 42.2871 53.7075 42.4955 53.7075 42.7523C53.7075 43.4431 53.9546 43.9182 54.4633 44.205C54.8476 44.4216 55.2506 44.4508 55.2995 44.4535C56.4583 44.452 57.2884 44.1754 57.7662 43.6317C58.3159 43.006 58.2221 42.2031 58.2209 42.1952C58.1855 41.9407 58.3649 41.706 58.621 41.6709C58.8772 41.6357 59.1143 41.8137 59.1497 42.0678C59.1565 42.1171 59.3088 43.2912 58.4731 44.2425C57.8072 44.9992 56.7359 45.3831 55.2887 45.3831Z" fill="#232323"/>
<path d="M39.3593 42.112C39.4131 41.3571 38.3019 40.6641 36.8772 40.5641C35.4525 40.4641 34.2539 40.995 34.2001 41.7498C34.1462 42.5047 35.2575 43.1977 36.6821 43.2977C38.1068 43.3977 39.3054 42.8669 39.3593 42.112Z" fill="#FF8A65"/>
<path d="M69.4329 43.2951C70.8575 43.1951 71.9688 42.5021 71.9149 41.7472C71.861 40.9923 70.6625 40.4615 69.2378 40.5615C67.8131 40.6615 66.7019 41.3545 66.7557 42.1094C66.8096 42.8642 68.0082 43.3951 69.4329 43.2951Z" fill="#FF8A65"/>
<g opacity="0.2">
<g opacity="0.2">
<path opacity="0.2" d="M80.7906 46.9743C77.0044 46.6019 75.9602 43.4969 75.9602 43.4969C77.6576 44.1179 80.2683 43.3726 80.2683 43.3726C77.5267 42.6273 75.5684 38.1568 75.5684 38.1568C76.4419 26.7601 70.6624 20.2384 64.7663 16.583C63.3108 15.6807 61.7753 14.9674 60.1941 14.4375C61.5888 16.175 90.6101 55.5575 45.7236 56.3608L47.0419 56.7861C48.9028 56.938 50.9204 57.0256 53.1134 57.0319H53.3744C77.8079 56.9601 80.7906 46.9743 80.7906 46.9743Z" fill="#232323"/>
</g>
</g>
<g opacity="0.3">
<g opacity="0.3">
<path opacity="0.3" d="M51.9723 38.5445C52.6816 38.3713 53.1817 37.9292 53.0894 37.5571C52.997 37.1849 52.3471 37.0236 51.6378 37.1967C50.9285 37.3699 50.4284 37.812 50.5207 38.1841C50.6131 38.5563 51.263 38.7176 51.9723 38.5445Z" fill="white"/>
</g>
</g>
<g opacity="0.2">
<g opacity="0.2">
<path opacity="0.2" d="M54.2706 44.5929C54.2706 44.5929 53.7452 46.9704 51.7813 46.6161C51.7813 46.6161 51.5891 47.058 51.685 47.1025C51.7809 47.1471 52.4953 47.6786 52.4953 47.6786L53.5666 47.1475L54.6378 47.6786C54.6378 47.6786 56.009 45.9347 55.5909 44.9476L54.2706 44.5929Z" fill="#232323"/>
</g>
</g>
<g opacity="0.2">
<g opacity="0.2">
<path opacity="0.2" d="M40.9788 64.5391C40.9788 64.5391 40.62 63.6597 40.6105 62.3704L40.0392 64.4192C40.0392 64.4192 40.2855 64.6595 40.6304 65.0532C42.9399 67.6915 41.4733 71.8204 38.0085 72.4516C37.5733 72.5309 37.0988 72.5933 36.582 72.6339C39.9481 74.3722 44.2702 75.4458 46.6505 71.4499C46.6505 71.4503 48.0547 67.1889 40.9788 64.5391Z" fill="#232323"/>
</g>
</g>
<g opacity="0.2">
<g opacity="0.2">
<path opacity="0.2" d="M70.8319 56.1568L70.0053 55.1571C70.0053 55.1571 69.7933 55.2242 69.3919 55.3334C69.366 55.3224 69.3418 55.3106 69.3159 55.2999L69.23 55.3768C65.9223 56.2559 52.3668 59.2662 35.6782 54.7894L35.4463 55.9122C35.4463 55.9122 48.4255 60.8436 63.5742 58.7383C67.249 58.2274 70.3657 61.5072 69.4826 65.0821C68.5454 68.8756 65.5966 72.6667 57.9403 73.973C57.9403 73.973 68.6516 75.3894 73.4191 70.911C73.4191 70.9102 76.1929 60.1811 70.8319 56.1568Z" fill="#232323"/>
</g>
</g>
<g opacity="0.2">
<g opacity="0.2">
<path opacity="0.2" d="M17.5938 88.4917C17.5938 88.4917 27.2339 95.7512 31.1617 86.1899C31.1617 86.1899 31.3789 91.8311 34.4391 92.8616C34.4391 92.8616 28.9758 93.5272 28.0605 96.1C28.0601 96.1 19.0218 96.6365 17.5938 88.4917Z" fill="#232323"/>
</g>
</g>
<g opacity="0.2">
<g opacity="0.2">
<path opacity="0.2" d="M35.4977 82.1029C35.4977 82.1029 36.8749 90.0852 31.5146 87.8245C31.5146 87.8245 32.356 92.6821 35.0172 92.933L45.044 94.0227C45.0436 94.0227 37.2449 91.0297 35.4977 82.1029Z" fill="#232323"/>
</g>
</g>
<g opacity="0.2">
<g opacity="0.2">
<path opacity="0.2" d="M43.4135 93.7893C43.4135 93.7893 42.9445 100.001 27.4131 99.6466L28.7847 101.243H29.8233H48.3234L49.1035 99.5579L48.3465 95.8208C48.3469 95.8212 47.7208 93.8635 43.4135 93.7893Z" fill="#232323"/>
</g>
</g>
<g opacity="0.2">
<g opacity="0.2">
<path opacity="0.2" d="M74.9004 93.8033C74.9004 93.8033 76.8643 99.6465 60.083 99.6465L60.9832 100.71H79.8899L80.7026 99.5577L80.9281 98.1543C80.9277 98.1547 79.5418 94.1576 74.9004 93.8033Z" fill="#232323"/>
</g>
</g>
<g opacity="0.2">
<g opacity="0.2">
<path opacity="0.2" d="M93.8699 71.072C93.8699 71.072 93.2812 73.4176 91.6801 75.7777C88.6354 80.266 81.8494 79.974 79.1484 75.2747C77.5381 72.473 75.793 70.9627 75.793 70.9627C79.0064 59.6308 72.3406 54.2635 72.3406 54.2635L69.4912 55.0036C77.9172 61.7976 72.7917 71.4816 72.7917 71.4816C80.9472 77.5784 77.8166 91.5944 77.8166 91.5944L81.1485 90.4392C81.1811 90.3082 81.2106 90.1784 81.2404 90.0482C84.3678 89.3483 94.1336 85.9671 93.8699 71.072Z" fill="#232323"/>
</g>
</g>
</g>
<path d="M143.635 39.4107C143.146 44.0297 142.89 49.2105 142.869 54.9532V55.4213C142.869 61.0183 143.231 66.3864 143.953 71.5256C145.867 70.402 147.429 68.571 148.641 66.0326C149.853 63.4942 150.682 60.675 151.128 57.5748C151.384 55.827 151.511 54.1209 151.511 52.4564C151.511 51.1664 151.373 49.5018 151.097 47.4628C150.841 45.4238 150.087 43.5304 148.832 41.7826C147.684 40.1805 146.143 39.3795 144.209 39.3795C144.017 39.3795 143.826 39.3899 143.635 39.4107ZM141.02 77.9236C140.616 77.986 140.254 78.0172 139.935 78.0172C139.319 78.0172 138.787 77.8508 138.341 77.5179C137.916 77.185 137.554 76.3319 137.257 74.9587C136.109 69.5281 135.439 63.1925 135.248 55.9519C135.226 54.7451 135.216 53.5591 135.216 52.3939C135.216 46.5889 135.609 41.4185 136.396 36.8827C136.608 36.0088 137.15 35.3638 138.022 34.9477C138.915 34.5107 139.882 34.2298 140.924 34.105C141.711 34.001 142.391 33.9489 142.965 33.9489C143.156 33.9489 143.337 33.9593 143.507 33.9802C147.567 34.2923 150.671 35.8527 152.819 38.6616C154.987 41.4705 156.284 44.9244 156.709 49.0233C156.815 50.1468 156.868 51.2704 156.868 52.3939C156.868 55.3901 156.39 58.6983 155.433 62.3187C154.477 65.9182 152.755 69.2473 150.267 72.3058C147.78 75.3436 144.697 77.2162 141.02 77.9236Z" fill="white"/>
<path d="M167.264 40.4718C168.2 40.1805 169.082 40.0349 169.911 40.0349C171.399 40.0349 172.824 40.6799 174.184 41.9699C175.545 43.2391 176.544 45.2157 177.182 47.8997C177.586 49.5851 177.788 51.2392 177.788 52.8621C177.788 53.84 177.66 55.2132 177.405 56.9818C177.15 58.7295 176.342 60.186 174.981 61.3512C174.003 61.9962 172.59 62.4435 170.74 62.6932C169.167 62.8805 167.838 62.9741 166.754 62.9741H166.18C166.18 65.3252 166.414 67.3122 166.882 68.9352C167.349 70.5373 168.03 71.5048 168.922 71.8377C169.008 71.8585 169.093 71.8689 169.178 71.8689C169.752 71.8689 170.283 71.4111 170.772 70.4956C171.261 69.5594 171.612 68.4878 171.824 67.281C172.037 66.0743 172.175 65.2212 172.239 64.7218C172.345 64.3473 172.845 64.1288 173.738 64.0664C173.929 64.0456 174.131 64.0352 174.344 64.0352C174.833 64.0352 175.364 64.1184 175.938 64.2849C176.512 64.4513 176.799 64.7738 176.799 65.2524C175.991 68.8311 174.896 71.5776 173.515 73.4918C172.154 75.3852 170.464 76.3631 168.444 76.4255C166.063 76.4047 164.203 75.5308 162.864 73.8039C161.524 72.0561 160.589 69.8194 160.057 67.0938C159.653 64.9091 159.451 62.6308 159.451 60.2588C159.451 59.6762 159.462 59.0833 159.483 58.4799C159.568 55.7126 159.887 53.0806 160.44 50.5838C160.993 48.087 161.822 45.9439 162.927 44.1546C164.054 42.3652 165.5 41.1376 167.264 40.4718ZM171.123 58.2926C171.654 57.9389 171.984 57.0234 172.111 55.5461C172.175 54.9011 172.207 54.2249 172.207 53.5175C172.207 52.6228 172.133 51.4785 171.984 50.0844C171.835 48.6904 171.548 47.3588 171.123 46.0896C170.719 44.9452 170.241 44.373 169.688 44.373H169.56C168.922 44.6019 168.359 45.507 167.87 47.0883C167.402 48.6488 167.02 50.5006 166.722 52.6436C166.425 54.7659 166.244 56.7841 166.18 58.6983C166.626 58.7399 167.19 58.7608 167.87 58.7608C168.083 58.7608 168.497 58.7608 169.114 58.7608C169.752 58.7608 170.421 58.6047 171.123 58.2926Z" fill="white"/>
<path d="M188.821 40.4718C189.757 40.1805 190.639 40.0349 191.468 40.0349C192.956 40.0349 194.381 40.6799 195.741 41.9699C197.102 43.2391 198.101 45.2157 198.739 47.8997C199.143 49.5851 199.345 51.2392 199.345 52.8621C199.345 53.84 199.217 55.2132 198.962 56.9818C198.707 58.7295 197.899 60.186 196.538 61.3512C195.56 61.9962 194.147 62.4435 192.297 62.6932C190.724 62.8805 189.395 62.9741 188.311 62.9741H187.737C187.737 65.3252 187.971 67.3122 188.439 68.9352C188.906 70.5373 189.587 71.5048 190.479 71.8377C190.564 71.8585 190.65 71.8689 190.735 71.8689C191.309 71.8689 191.84 71.4111 192.329 70.4956C192.818 69.5594 193.169 68.4878 193.381 67.281C193.594 66.0743 193.732 65.2212 193.796 64.7218C193.902 64.3473 194.402 64.1288 195.295 64.0664C195.486 64.0456 195.688 64.0352 195.901 64.0352C196.39 64.0352 196.921 64.1184 197.495 64.2849C198.069 64.4513 198.356 64.7738 198.356 65.2524C197.548 68.8311 196.453 71.5776 195.071 73.4918C193.711 75.3852 192.021 76.3631 190.001 76.4255C187.62 76.4047 185.76 75.5308 184.421 73.8039C183.081 72.0561 182.146 69.8194 181.614 67.0938C181.21 64.9091 181.008 62.6308 181.008 60.2588C181.008 59.6762 181.019 59.0833 181.04 58.4799C181.125 55.7126 181.444 53.0806 181.997 50.5838C182.55 48.087 183.379 45.9439 184.484 44.1546C185.611 42.3652 187.057 41.1376 188.821 40.4718ZM192.68 58.2926C193.211 57.9389 193.541 57.0234 193.668 55.5461C193.732 54.9011 193.764 54.2249 193.764 53.5175C193.764 52.6228 193.69 51.4785 193.541 50.0844C193.392 48.6904 193.105 47.3588 192.68 46.0896C192.276 44.9452 191.798 44.373 191.245 44.373H191.117C190.479 44.6019 189.916 45.507 189.427 47.0883C188.959 48.6488 188.577 50.5006 188.279 52.6436C187.981 54.7659 187.801 56.7841 187.737 58.6983C188.183 58.7399 188.747 58.7608 189.427 58.7608C189.64 58.7608 190.054 58.7608 190.671 58.7608C191.309 58.7608 191.978 58.6047 192.68 58.2926Z" fill="white"/>
<path d="M203.522 75.4892C202.948 75.4268 202.502 75.1251 202.183 74.5841C201.885 74.0224 201.704 73.4086 201.641 72.7428C201.619 72.5347 201.609 72.3474 201.609 72.181C201.609 71.7648 201.662 71.4111 201.768 71.1198L211.686 48.4303L203.49 48.6488C202.916 48.628 202.512 48.243 202.278 47.494C202.13 47.0363 202.055 46.5681 202.055 46.0896C202.055 45.7983 202.098 45.3821 202.183 44.8412C202.289 44.3002 202.629 43.9673 203.203 43.8425L217.043 43.6552C217.617 43.7176 218.106 44.1025 218.51 44.81C218.935 45.4966 219.222 46.2664 219.371 47.1195C219.435 47.4732 219.467 47.7957 219.467 48.087C219.467 48.5031 219.403 48.8672 219.275 49.1793L208.752 71.1198L217.043 71.0262C217.617 71.0678 218 71.4319 218.191 72.1186C218.276 72.4515 218.319 72.7948 218.319 73.1485C218.319 73.5022 218.244 73.9495 218.095 74.4905C217.968 75.0107 217.617 75.302 217.043 75.3644L203.522 75.4892Z" fill="white"/>
<path d="M247.848 76.1446C247.827 76.8729 247.263 77.4138 246.158 77.7675C245.371 78.0172 244.563 78.1421 243.734 78.1421C243.394 78.1421 242.841 78.1004 242.076 78.0172C241.332 77.934 240.843 77.5387 240.609 76.8312C240.077 71.2135 239.727 64.6074 239.557 57.013C239.514 55.1196 239.493 53.2574 239.493 51.4264C239.493 45.9335 239.705 40.7423 240.131 35.8527C240.301 35.3326 240.907 34.9373 241.948 34.6668C242.735 34.4379 243.543 34.3235 244.372 34.3235C244.606 34.3235 245.042 34.3547 245.679 34.4171C246.338 34.4795 246.806 34.8124 247.082 35.4158C247.401 36.5186 247.731 37.6213 248.071 38.724C249.41 43.4263 250.824 48.1806 252.312 52.9869C253.8 57.7724 255.427 62.3915 257.191 66.8441C257.574 62.662 257.765 58.6047 257.765 54.6723C257.765 52.8621 257.68 50.1364 257.51 46.4953C257.361 42.8541 257.138 39.6291 256.84 36.8202C256.798 36.4041 256.766 36.04 256.745 35.7279C256.766 35.1037 257.223 34.646 258.116 34.3547C258.733 34.1674 259.36 34.0738 259.997 34.0738C260.295 34.0738 260.752 34.1258 261.369 34.2298C262.006 34.3131 262.421 34.6668 262.612 35.291C263.059 40.4302 263.282 46.1832 263.282 52.55C263.282 53.6111 263.25 56.3368 263.186 60.727C263.144 65.1172 262.602 70.2876 261.56 76.2383C261.411 76.696 260.954 77.0497 260.189 77.2994C259.7 77.445 259.2 77.5179 258.69 77.5179C258.414 77.5179 257.988 77.4762 257.414 77.393C256.862 77.3098 256.405 76.9769 256.043 76.3943C254.661 73.6062 253.375 70.6517 252.185 67.5307C250.994 64.3889 249.899 61.372 248.9 58.4799C248.028 56.0039 247.231 53.8296 246.508 51.957C246.487 52.9765 246.477 53.9961 246.477 55.0156C246.477 58.0949 246.562 61.4448 246.732 65.0651C246.902 68.6647 247.274 72.3578 247.848 76.1446Z" fill="white"/>
<path d="M282.639 69.8715C281.98 71.8481 280.8 73.2837 279.099 74.1784C277.887 74.8026 276.644 75.1147 275.368 75.1147C274.836 75.1147 273.975 75.0003 272.785 74.7714C271.594 74.5217 270.425 73.5022 269.277 71.7128C267.98 69.3409 267.279 66.376 267.172 62.818C267.13 61.5696 267.109 60.3212 267.109 59.0729C267.109 56.7633 267.183 54.433 267.332 52.0819C267.417 50.4797 267.481 48.9505 267.523 47.494C267.63 46.6617 268.267 46.1312 269.437 45.9023C270.032 45.7775 270.627 45.715 271.222 45.715C271.818 45.715 272.54 45.8087 273.391 45.9959C274.262 46.1832 274.741 46.6201 274.826 47.3067C274.805 48.3679 274.73 49.7931 274.603 51.5825C274.433 54.0793 274.316 56.7321 274.252 59.541V60.727C274.252 63.0157 274.411 64.9923 274.73 66.6568C275.092 68.4878 275.793 69.4033 276.835 69.4033H277.026C278.323 69.112 279.333 67.9468 280.056 65.9078C280.8 63.8688 281.342 61.4344 281.682 58.6047C282.043 55.775 282.277 53.0285 282.384 50.3653C282.49 47.7021 282.543 45.5798 282.543 43.9985V43.0622C282.607 42.6045 283 42.2612 283.723 42.0323C284.382 41.845 285.137 41.7514 285.987 41.7514C286.072 41.7514 286.37 41.7618 286.88 41.7826C287.39 41.7826 287.996 41.9179 288.698 42.1883C289.42 42.438 289.792 42.8021 289.814 43.2807C289.58 47.338 289.42 52.4044 289.335 58.4799C289.314 60.3525 289.303 62.1626 289.303 63.9104C289.303 67.8844 289.367 71.6192 289.495 75.1147V75.1459C289.495 75.8325 288.974 76.3527 287.932 76.7064C287.124 76.9769 286.317 77.1121 285.509 77.1121C285.211 77.1121 284.701 77.0705 283.978 76.9873C283.276 76.9041 282.873 76.4775 282.766 75.7077C282.681 73.3149 282.639 71.3695 282.639 69.8715Z" fill="white"/>
<path d="M295.235 32.763C295.426 31.7434 296.17 31.1401 297.467 30.9528C297.85 30.9112 298.222 30.8904 298.583 30.8904C299.519 30.8904 300.518 31.0672 301.581 31.4209C302.665 31.7747 303.207 32.3572 303.207 33.1687C303.058 34.3131 302.888 35.499 302.697 36.7266C302.059 40.2637 301.634 44.4771 301.421 49.3666L308.66 49.6163C309.383 49.6995 309.829 50.1468 309.999 50.9583C310.084 51.2912 310.127 51.6241 310.127 51.957C310.127 52.4356 310.01 52.9869 309.776 53.6111C309.542 54.2353 309.096 54.5578 308.437 54.5786L301.007 54.3602V55.1716C301.007 58.3966 301.124 61.424 301.358 64.2537C301.613 67.0834 302.038 69.3409 302.633 71.0262C303.122 72.4827 303.76 73.2109 304.546 73.2109C304.674 73.2109 304.802 73.1901 304.929 73.1485C305.503 73.0444 306.066 72.2018 306.619 70.6205C307.172 69.0392 307.565 66.0951 307.799 61.7881C307.884 61.1015 308.299 60.6854 309.043 60.5397C309.319 60.4773 309.606 60.4461 309.904 60.4461C310.35 60.4461 310.871 60.5501 311.466 60.7582C312.062 60.9662 312.391 61.3408 312.455 61.8817C312.412 68.1237 311.488 72.6491 309.681 75.458C308.15 77.8924 306.194 79.1096 303.813 79.1096C303.43 79.1096 303.037 79.0783 302.633 79.0159C300.337 78.5998 298.541 77.3514 297.244 75.2708C295.947 73.1901 295.022 70.5893 294.469 67.4683C293.938 64.3265 293.662 60.9871 293.64 57.4499V56.6385C293.64 52.6644 293.789 48.7528 294.087 44.9036C294.384 41.0336 294.682 37.819 294.98 35.2598C295.086 34.2402 295.171 33.408 295.235 32.763Z" fill="white"/>
<path d="M330.058 50.0844C329.93 48.2534 329.239 47.0883 327.985 46.5889C327.56 46.4017 327.124 46.308 326.677 46.308C325.891 46.308 324.998 46.7138 323.999 47.5252C323 48.3159 322.489 50.022 322.468 52.6436C322.553 54.329 323.095 55.7334 324.094 56.857C325.115 57.9597 326.305 58.9896 327.666 59.9467C329.26 61.0495 330.663 62.3395 331.875 63.8167C332.96 65.1692 333.502 66.9585 333.502 69.1848V69.7778C333.204 72.5035 332.109 74.5529 330.217 75.9262C328.559 77.1537 326.752 77.7675 324.796 77.7675C324.541 77.7675 324.275 77.7571 323.999 77.7363C322.277 77.5907 320.725 76.9353 319.343 75.7701C317.982 74.5841 317.153 72.878 316.856 70.6517C316.813 70.2772 316.792 69.8819 316.792 69.4657C316.792 67.4683 317.398 65.1068 318.609 62.3811C317.483 61.4656 316.558 60.3108 315.835 58.9168C315.112 57.502 314.73 55.6294 314.687 53.299C314.751 49.9908 315.878 47.2027 318.067 44.9348C320.278 42.6669 323.01 41.4913 326.263 41.4081C328.899 41.4705 330.929 42.23 332.354 43.6864C333.799 45.1221 334.682 46.9634 335 49.2105C334.979 49.9804 334.575 50.5526 333.789 50.9271C333.215 51.1976 332.63 51.3328 332.035 51.3328C331.822 51.3328 331.45 51.3016 330.919 51.2392C330.408 51.156 330.121 50.771 330.058 50.0844ZM325.912 69.2473C325.593 67.666 324.318 66.1991 322.085 64.8467C321.49 66.1575 321.15 67.3226 321.065 68.3422C321.044 68.5294 321.033 68.7167 321.033 68.9039C321.033 69.6738 321.15 70.35 321.384 70.9326C321.894 72.0978 322.542 72.7428 323.329 72.8676C323.457 72.8884 323.574 72.8988 323.68 72.8988C324.339 72.8988 324.902 72.6075 325.37 72.0249C325.774 71.5256 325.976 70.891 325.976 70.1211C325.976 69.8506 325.955 69.5594 325.912 69.2473Z" fill="white"/>
</g>
<defs>
<clipPath id="clip0_3_1107">
<rect width="335" height="110" fill="white"/>
</clipPath>
<clipPath id="clip1_3_1107">
<rect width="110.907" height="110" fill="white"/>
</clipPath>
</defs>
</svg>
