<svg width="24" height="24" viewBox="0 0 24 24" fill="none" xmlns="http://www.w3.org/2000/svg">
<g clip-path="url(#clip0_3_1356)">
<path d="M4.41214 9.4751C4.03733 10.6034 3.83398 11.8099 3.83398 13.0639C3.83398 18.2402 7.28886 22.6093 12.019 23.9902C12.0629 24.003 12.1098 24.003 12.1536 23.9902C16.8831 22.6086 20.338 18.2402 20.338 13.0639C20.338 11.8098 20.1346 10.6034 19.7598 9.4751H4.41214Z" fill="#FCC16D"/>
<path d="M20.3253 12.5229C20.2755 11.4626 20.0808 10.4402 19.7603 9.4751H4.41264C4.09206 10.4402 3.89739 11.4626 3.84766 12.5229H20.3253Z" fill="#FCB44D"/>
<path d="M20.338 13.0637C20.338 18.2404 16.8835 22.6084 12.1541 23.9904C12.1102 24.0032 12.0634 24.0032 12.0196 23.9905C11.7096 23.9 11.4048 23.7966 11.1064 23.6801C15.3612 22.0323 18.3777 17.9013 18.3777 13.0637C18.3777 11.8101 18.1746 10.6036 17.7995 9.47528H19.7603C20.1348 10.6035 20.338 11.81 20.338 13.0637Z" fill="#FCB44D"/>
<path d="M13.6587 1.11984C13.6193 0.926621 13.4303 0.801933 13.2375 0.841918L11.7199 1.15293C11.5645 0.778918 11.3745 0.426793 11.1421 0.134714C11.0193 -0.0195981 10.7948 -0.0450512 10.6406 0.0776207C10.4863 0.200386 10.4608 0.424918 10.5835 0.579183C11.527 1.76498 11.6831 4.29773 11.6845 4.32318C11.6954 4.51303 11.8527 4.6597 12.0405 4.6597C12.0474 4.6597 12.0542 4.65951 12.0611 4.65914C12.258 4.64793 12.4084 4.47932 12.3972 4.2825C12.393 4.20801 12.3204 3.02226 11.9608 1.83196L13.3808 1.54096C13.574 1.50154 13.6987 1.31259 13.6587 1.11984Z" fill="#9D552E"/>
<path d="M20.4426 11.275H3.55679C3.23902 11.275 2.98145 11.0174 2.98145 10.6996V7.81507C2.98145 5.87539 4.55387 4.30292 6.4936 4.30292H17.5058C19.4455 4.30292 21.018 5.87534 21.018 7.81507V10.6996C21.0179 11.0174 20.7603 11.275 20.4426 11.275Z" fill="#C76D3D"/>
<path d="M21.0182 7.81533V10.6995C21.0182 11.0171 20.761 11.2749 20.4428 11.2749H18.6046C18.9228 11.2749 19.1799 11.0171 19.1799 10.6995V7.81533C19.1799 5.87522 17.6075 4.3028 15.668 4.3028H17.5062C19.4457 4.3028 21.0182 5.87526 21.0182 7.81533Z" fill="#AA5E33"/>
<path d="M9.83923 4.30267C8.23348 4.53302 6.959 5.82035 6.78195 7.4756C6.76245 7.65883 6.60776 7.79495 6.42739 7.79495C6.41501 7.79495 6.40217 7.79402 6.38932 7.79256C6.19325 7.77161 6.05145 7.59602 6.07236 7.39994C6.21083 6.10117 6.91282 4.99183 7.92129 4.30267H9.83923Z" fill="#AA5E33"/>
<path d="M17.609 7.79256C17.5962 7.79397 17.5833 7.79495 17.571 7.79495C17.3906 7.79495 17.2359 7.65883 17.2164 7.47559C17.0394 5.82039 15.7649 4.53302 14.1592 4.30267H16.0771C17.0856 4.99178 17.7875 6.10113 17.926 7.39994C17.947 7.59602 17.8051 7.77166 17.609 7.79256Z" fill="#AA5E33"/>
<path d="M14.1701 7.79378C13.975 7.80719 13.8107 7.65222 13.7889 7.45783C13.6705 6.40272 13.0169 5.05774 12.1203 4.5092C12.0458 4.46364 11.9511 4.46425 11.8767 4.50986C10.9756 5.06191 10.3202 6.41828 10.2072 7.47559C10.1877 7.65883 10.0326 7.79495 9.85266 7.79495C9.83982 7.79495 9.82744 7.79402 9.81413 7.79256C9.61852 7.77161 9.47621 7.59602 9.49716 7.39994C9.60854 6.35814 10.143 5.09369 10.9816 4.30267H13.0165C13.8551 5.09364 14.3895 6.35814 14.5009 7.39994C14.5223 7.60061 14.3733 7.77981 14.1701 7.79378Z" fill="#AA5E33"/>
<path d="M9.59623 19.9624C9.2943 19.9624 9.04488 19.725 8.94523 19.3428C8.89549 19.1521 9.00982 18.9572 9.2006 18.9074C9.35716 18.8666 9.51659 18.9364 9.59623 19.0682C9.67577 18.9364 9.83496 18.8666 9.99176 18.9074C10.1825 18.9571 10.2969 19.152 10.2472 19.3428C10.1476 19.7249 9.89824 19.9624 9.59623 19.9624Z" fill="#FCB44D"/>
<path d="M11.2544 21.3747C10.9523 21.3747 10.703 21.1372 10.6034 20.7551C10.5537 20.5643 10.6681 20.3694 10.8588 20.3197C11.0156 20.2789 11.1748 20.3487 11.2544 20.4805C11.334 20.3486 11.4933 20.2789 11.65 20.3197C11.8408 20.3695 11.9551 20.5644 11.9054 20.7551C11.8057 21.1373 11.5563 21.3747 11.2544 21.3747Z" fill="#FCB44D"/>
<path d="M17.0122 13.9877C16.7102 13.9877 16.4608 13.7503 16.3612 13.3681C16.3115 13.1773 16.4259 12.9824 16.6166 12.9327C16.7734 12.8919 16.9326 12.9617 17.0122 13.0934C17.0918 12.9617 17.2511 12.8919 17.4078 12.9327C17.5986 12.9824 17.7129 13.1774 17.6632 13.3681C17.5635 13.7503 17.3141 13.9877 17.0122 13.9877Z" fill="#FCB44D"/>
<path d="M14.6333 15.28C14.3313 15.28 14.0818 15.0426 13.9823 14.6604C13.9326 14.4696 14.047 14.2748 14.2378 14.2251C14.3943 14.1842 14.5537 14.2541 14.6333 14.3858C14.7128 14.254 14.872 14.1842 15.0289 14.2251C15.2196 14.2748 15.334 14.4697 15.2843 14.6605C15.1847 15.0426 14.9352 15.28 14.6333 15.28Z" fill="#FCB44D"/>
<path d="M7.03952 15.4154C6.7375 15.4154 6.48813 15.178 6.38856 14.7959C6.33888 14.6051 6.45325 14.4102 6.64399 14.3605C6.80069 14.3198 6.95997 14.3895 7.03952 14.5212C7.11906 14.3895 7.27825 14.3197 7.43505 14.3605C7.62578 14.4102 7.74016 14.6051 7.69047 14.7959C7.59091 15.178 7.34153 15.4154 7.03952 15.4154Z" fill="#FCB44D"/>
</g>
<defs>
<clipPath id="clip0_3_1356">
<rect width="24" height="24" fill="white"/>
</clipPath>
</defs>
</svg>
