<svg width="32" height="32" viewBox="0 0 32 32" fill="none" xmlns="http://www.w3.org/2000/svg">
<g opacity="0.4" clip-path="url(#clip0_3_1452)">
<path d="M6.64967 15.2097C6.6497 15.0307 6.68501 14.8536 6.75358 14.6883C6.82214 14.5231 6.92261 14.3731 7.0492 14.2468C7.1758 14.1206 7.32604 14.0207 7.49129 13.9528C7.65654 13.8849 7.83355 13.8504 8.01215 13.8512L10.271 13.8586C10.6312 13.8586 10.9766 14.002 11.2312 14.2571C11.4859 14.5123 11.629 14.8583 11.629 15.2192V23.7771C11.8834 23.7016 12.209 23.621 12.5673 23.5365C12.8155 23.478 13.0367 23.3372 13.1951 23.1369C13.3534 22.9367 13.4396 22.6887 13.4397 22.4332V11.8184C13.4397 11.4576 13.5827 11.1115 13.8374 10.8563C14.0921 10.6011 14.4375 10.4577 14.7977 10.4576H17.0634C17.4235 10.4577 17.7689 10.6011 18.0236 10.8563C18.2783 11.1115 18.4213 11.4576 18.4213 11.8184V21.6707C18.4213 21.6707 18.9882 21.4409 19.54 21.2074C19.745 21.1205 19.92 20.975 20.043 20.7892C20.1661 20.6033 20.2318 20.3852 20.232 20.1622V8.41692C20.232 8.05613 20.375 7.7101 20.6297 7.45496C20.8843 7.19981 21.2296 7.05643 21.5897 7.05636H23.8531C24.213 7.05671 24.5581 7.20022 24.8125 7.45533C25.0669 7.71045 25.2097 8.05631 25.2097 8.41692V18.0887C27.172 16.664 29.1606 14.9503 30.7387 12.8898C30.9677 12.5907 31.1192 12.2395 31.1798 11.8674C31.2403 11.4954 31.208 11.1142 31.0857 10.7577C30.3552 8.65203 29.194 6.72236 27.6764 5.09214C26.1588 3.46192 24.3182 2.16706 22.2724 1.29041C20.2267 0.413764 18.0208 -0.0253641 15.7959 0.00113141C13.5711 0.027627 11.3762 0.519161 9.35183 1.44428C7.32745 2.3694 5.51812 3.70773 4.03962 5.37363C2.56113 7.03953 1.44602 8.99631 0.765664 11.1188C0.0853074 13.2412 -0.145317 15.4826 0.088548 17.6995C0.322413 19.9163 1.01562 22.0599 2.1238 23.9929C2.31687 24.3264 2.60092 24.5977 2.94258 24.7751C3.28424 24.9524 3.66932 25.0284 4.05257 24.994C4.48072 24.9562 5.0138 24.9029 5.64758 24.8284C5.92342 24.7969 6.17808 24.665 6.36306 24.4576C6.54805 24.2502 6.65043 23.9818 6.65072 23.7037V15.2097" fill="white"/>
<path d="M6.60156 28.9343C8.98727 30.6731 11.8066 31.7169 14.7476 31.95C17.6887 32.1831 20.6368 31.5966 23.2657 30.2553C25.8947 28.9139 28.102 26.8701 29.6435 24.3499C31.1851 21.8297 32.0007 18.9314 32.0001 15.9756C32.0001 15.6058 31.983 15.2418 31.9585 14.8789C26.1155 23.6099 15.3269 27.6915 6.60156 28.9343" fill="white"/>
</g>
<defs>
<clipPath id="clip0_3_1452">
<rect width="32" height="32" fill="white"/>
</clipPath>
</defs>
</svg>
